solid PinaTinnyStlAndPringle v4.009
facet normal -1.000000 0.000000 0.000000
outer loop
vertex 142.664993 -239.320007 3.750000
vertex 142.664993 -239.320007 7.500000
vertex 142.664993 -231.320007 3.750000
endloop
endfacet
facet normal -1.000000 0.000000 0.000000
outer loop
vertex 142.664993 -231.320007 3.750000
vertex 142.664993 -239.320007 7.500000
vertex 142.664993 -231.320007 7.500000
endloop
endfacet
facet normal 0.000000 0.000000 -1.000000
outer loop
vertex 157.335007 -239.320007 3.750000
vertex 142.664993 -239.320007 3.750000
vertex 157.335007 -231.320007 3.750000
endloop
endfacet
facet normal 0.000000 0.000000 -1.000000
outer loop
vertex 157.335007 -231.320007 3.750000
vertex 142.664993 -239.320007 3.750000
vertex 142.664993 -231.320007 3.750000
endloop
endfacet
facet normal 1.000000 0.000000 0.000000
outer loop
vertex 157.335007 -239.320007 7.500000
vertex 157.335007 -239.320007 3.750000
vertex 157.335007 -231.320007 7.500000
endloop
endfacet
facet normal 1.000000 0.000000 0.000000
outer loop
vertex 157.335007 -231.320007 7.500000
vertex 157.335007 -239.320007 3.750000
vertex 157.335007 -231.320007 3.750000
endloop
endfacet
facet normal 0.000000 0.000000 1.000000
outer loop
vertex 142.664993 -239.320007 7.500000
vertex 157.335007 -239.320007 7.500000
vertex 142.664993 -231.320007 7.500000
endloop
endfacet
facet normal 0.000000 0.000000 1.000000
outer loop
vertex 142.664993 -231.320007 7.500000
vertex 157.335007 -239.320007 7.500000
vertex 157.335007 -231.320007 7.500000
endloop
endfacet
facet normal 0.000000 1.000000 0.000000
outer loop
vertex 157.335007 -231.320007 7.500000
vertex 157.335007 -231.320007 3.750000
vertex 142.664993 -231.320007 7.500000
endloop
endfacet
facet normal 0.000000 1.000000 0.000000
outer loop
vertex 142.664993 -231.320007 7.500000
vertex 157.335007 -231.320007 3.750000
vertex 142.664993 -231.320007 3.750000
endloop
endfacet
facet normal 0.000000 -1.000000 0.000000
outer loop
vertex 157.335007 -239.320007 7.500000
vertex 142.664993 -239.320007 7.500000
vertex 157.335007 -239.320007 3.750000
endloop
endfacet
facet normal 0.000000 -1.000000 0.000000
outer loop
vertex 157.335007 -239.320007 3.750000
vertex 142.664993 -239.320007 7.500000
vertex 142.664993 -239.320007 3.750000
endloop
endfacet
endsolid PinaTinnyStlAndPringle v4.009
