solid PinaTinnyStlAndPringle v4.008
facet normal 1.000000 0.000000 0.000000
outer loop
vertex 142.164993 -228.320007 3.250000
vertex 142.164993 -227.320007 3.250000
vertex 142.164993 -228.320007 8.000000
endloop
endfacet
facet normal 1.000000 0.000000 0.000000
outer loop
vertex 142.164993 -228.320007 8.000000
vertex 142.164993 -227.320007 3.250000
vertex 142.164993 -227.320007 8.000000
endloop
endfacet
facet normal 0.000000 0.000000 -1.000000
outer loop
vertex 142.164993 -228.320007 8.000000
vertex 142.164993 -227.320007 8.000000
vertex 157.835007 -228.320007 8.000000
endloop
endfacet
facet normal 0.000000 0.000000 -1.000000
outer loop
vertex 157.835007 -228.320007 8.000000
vertex 142.164993 -227.320007 8.000000
vertex 157.835007 -227.320007 8.000000
endloop
endfacet
facet normal -1.000000 0.000000 0.000000
outer loop
vertex 157.835007 -228.320007 8.000000
vertex 157.835007 -227.320007 8.000000
vertex 157.835007 -228.320007 3.250000
endloop
endfacet
facet normal -1.000000 0.000000 0.000000
outer loop
vertex 157.835007 -228.320007 3.250000
vertex 157.835007 -227.320007 8.000000
vertex 157.835007 -227.320007 3.250000
endloop
endfacet
facet normal 0.000000 0.000000 1.000000
outer loop
vertex 142.164993 -228.320007 3.250000
vertex 157.835007 -228.320007 3.250000
vertex 142.164993 -227.320007 3.250000
endloop
endfacet
facet normal 0.000000 0.000000 1.000000
outer loop
vertex 142.164993 -227.320007 3.250000
vertex 157.835007 -228.320007 3.250000
vertex 157.835007 -227.320007 3.250000
endloop
endfacet
facet normal 0.000000 1.000000 0.000000
outer loop
vertex 142.164993 -227.320007 3.250000
vertex 157.835007 -227.320007 3.250000
vertex 142.164993 -227.320007 0.000000
endloop
endfacet
facet normal 0.000000 1.000000 0.000000
outer loop
vertex 142.164993 -227.320007 0.000000
vertex 157.835007 -227.320007 3.250000
vertex 157.835007 -227.320007 0.000000
endloop
endfacet
facet normal 1.000000 0.000000 0.000000
outer loop
vertex 158.835007 -221.333313 2.000000
vertex 158.835007 -221.000000 2.000000
vertex 158.835007 -221.333313 10.000000
endloop
endfacet
facet normal 1.000000 0.000000 0.000000
outer loop
vertex 158.835007 -221.333313 10.000000
vertex 158.835007 -221.000000 2.000000
vertex 158.835007 -221.000000 10.000000
endloop
endfacet
facet normal 0.677720 0.735320 0.000000
outer loop
vertex 162.013046 -224.262405 2.000000
vertex 158.835007 -221.333313 2.000000
vertex 162.013046 -224.262405 10.000000
endloop
endfacet
facet normal 0.677720 0.735320 0.000000
outer loop
vertex 162.013046 -224.262405 10.000000
vertex 158.835007 -221.333313 2.000000
vertex 158.835007 -221.333313 10.000000
endloop
endfacet
facet normal 0.735321 -0.677719 0.000000
outer loop
vertex 158.273285 -228.320007 2.000000
vertex 162.013046 -224.262405 2.000000
vertex 158.273285 -228.320007 10.000000
endloop
endfacet
facet normal 0.735318 -0.677722 0.000000
outer loop
vertex 158.273285 -228.320007 10.000000
vertex 162.013046 -224.262405 2.000000
vertex 162.013046 -224.262405 10.000000
endloop
endfacet
facet normal 0.000000 -1.000000 0.000000
outer loop
vertex 157.835007 -228.320007 3.250000
vertex 158.273285 -228.320007 2.000000
vertex 157.835007 -228.320007 8.000000
endloop
endfacet
facet normal 0.000000 -1.000000 0.000000
outer loop
vertex 157.835007 -228.320007 8.000000
vertex 158.273285 -228.320007 2.000000
vertex 158.273285 -228.320007 10.000000
endloop
endfacet
facet normal 0.000000 -1.000000 0.000000
outer loop
vertex 157.835007 -228.320007 8.000000
vertex 158.273285 -228.320007 10.000000
vertex 141.726715 -228.320007 10.000000
endloop
endfacet
facet normal 0.000000 -1.000000 0.000000
outer loop
vertex 157.835007 -228.320007 3.250000
vertex 142.164993 -228.320007 3.250000
vertex 158.273285 -228.320007 2.000000
endloop
endfacet
facet normal 0.000000 -1.000000 -0.000005
outer loop
vertex 158.273285 -228.320007 2.000000
vertex 142.164993 -228.320007 3.250000
vertex 141.726715 -228.320007 2.000000
endloop
endfacet
facet normal 0.000000 -1.000000 0.000000
outer loop
vertex 141.726715 -228.320007 2.000000
vertex 142.164993 -228.320007 3.250000
vertex 142.164993 -228.320007 8.000000
endloop
endfacet
facet normal 0.000000 -1.000000 0.000000
outer loop
vertex 141.726715 -228.320007 2.000000
vertex 142.164993 -228.320007 8.000000
vertex 141.726715 -228.320007 10.000000
endloop
endfacet
facet normal 0.000000 -1.000000 0.000000
outer loop
vertex 141.726715 -228.320007 10.000000
vertex 142.164993 -228.320007 8.000000
vertex 157.835007 -228.320007 8.000000
endloop
endfacet
facet normal -0.735318 -0.677722 0.000000
outer loop
vertex 137.986954 -224.262405 2.000000
vertex 141.726715 -228.320007 2.000000
vertex 137.986954 -224.262405 10.000000
endloop
endfacet
facet normal -0.735321 -0.677719 0.000000
outer loop
vertex 137.986954 -224.262405 10.000000
vertex 141.726715 -228.320007 2.000000
vertex 141.726715 -228.320007 10.000000
endloop
endfacet
facet normal -0.677720 0.735320 0.000000
outer loop
vertex 141.164993 -221.333313 2.000000
vertex 137.986954 -224.262405 2.000000
vertex 141.164993 -221.333313 10.000000
endloop
endfacet
facet normal -0.677720 0.735320 0.000000
outer loop
vertex 141.164993 -221.333313 10.000000
vertex 137.986954 -224.262405 2.000000
vertex 137.986954 -224.262405 10.000000
endloop
endfacet
facet normal -1.000000 0.000000 0.000000
outer loop
vertex 141.164993 -221.000000 2.000000
vertex 141.164993 -221.333313 2.000000
vertex 141.164993 -221.000000 10.000000
endloop
endfacet
facet normal -1.000000 0.000000 0.000000
outer loop
vertex 141.164993 -221.000000 10.000000
vertex 141.164993 -221.333313 2.000000
vertex 141.164993 -221.333313 10.000000
endloop
endfacet
facet normal 0.000000 -1.000000 0.000000
outer loop
vertex 132.735504 -221.000000 2.000000
vertex 141.164993 -221.000000 2.000000
vertex 132.735504 -221.000000 10.000000
endloop
endfacet
facet normal 0.000000 -1.000000 0.000000
outer loop
vertex 132.735504 -221.000000 10.000000
vertex 141.164993 -221.000000 2.000000
vertex 141.164993 -221.000000 10.000000
endloop
endfacet
facet normal 0.000000 -1.000000 0.000000
outer loop
vertex 158.835007 -221.000000 2.000000
vertex 167.264496 -221.000000 2.000000
vertex 158.835007 -221.000000 10.000000
endloop
endfacet
facet normal 0.000000 -1.000000 0.000000
outer loop
vertex 158.835007 -221.000000 10.000000
vertex 167.264496 -221.000000 2.000000
vertex 167.264496 -221.000000 10.000000
endloop
endfacet
facet normal 0.000000 0.000000 1.000000
outer loop
vertex 170.498505 -223.188187 2.000000
vertex 167.264496 -221.000000 2.000000
vertex 162.013046 -224.262405 2.000000
endloop
endfacet
facet normal 0.000000 0.000000 1.000000
outer loop
vertex 162.013046 -224.262405 2.000000
vertex 167.264496 -221.000000 2.000000
vertex 158.835007 -221.000000 2.000000
endloop
endfacet
facet normal 0.000000 0.000000 1.000000
outer loop
vertex 162.013046 -224.262405 2.000000
vertex 158.835007 -221.000000 2.000000
vertex 158.835007 -221.333313 2.000000
endloop
endfacet
facet normal 0.000000 0.000000 1.000000
outer loop
vertex 170.498505 -223.188187 2.000000
vertex 162.013046 -224.262405 2.000000
vertex 173.458145 -225.735260 2.000000
endloop
endfacet
facet normal 0.000000 0.000000 1.000000
outer loop
vertex 173.458145 -225.735260 2.000000
vertex 162.013046 -224.262405 2.000000
vertex 158.273285 -228.320007 2.000000
endloop
endfacet
facet normal 0.000000 0.000000 1.000000
outer loop
vertex 173.458145 -225.735260 2.000000
vertex 158.273285 -228.320007 2.000000
vertex 176.103775 -228.607132 2.000000
endloop
endfacet
facet normal 0.000000 0.000000 1.000000
outer loop
vertex 176.103775 -228.607132 2.000000
vertex 158.273285 -228.320007 2.000000
vertex 178.399994 -231.765350 2.000000
endloop
endfacet
facet normal 0.000000 0.000000 1.000000
outer loop
vertex 178.399994 -231.765350 2.000000
vertex 158.273285 -228.320007 2.000000
vertex 180.316071 -235.167664 2.000000
endloop
endfacet
facet normal 0.000000 0.000000 1.000000
outer loop
vertex 180.316071 -235.167664 2.000000
vertex 158.273285 -228.320007 2.000000
vertex 181.826340 -238.768509 2.000000
endloop
endfacet
facet normal 0.000000 0.000000 1.000000
outer loop
vertex 181.826340 -238.768509 2.000000
vertex 158.273285 -228.320007 2.000000
vertex 182.910599 -242.519699 2.000000
endloop
endfacet
facet normal 0.000000 0.000000 1.000000
outer loop
vertex 182.910599 -242.519699 2.000000
vertex 158.273285 -228.320007 2.000000
vertex 183.554321 -246.371002 2.000000
endloop
endfacet
facet normal 0.000000 0.000000 1.000000
outer loop
vertex 183.554321 -246.371002 2.000000
vertex 158.273285 -228.320007 2.000000
vertex 183.748917 -250.270905 2.000000
endloop
endfacet
facet normal 0.000000 0.000000 1.000000
outer loop
vertex 183.748917 -250.270905 2.000000
vertex 158.273285 -228.320007 2.000000
vertex 183.491745 -254.167160 2.000000
endloop
endfacet
facet normal 0.000000 0.000000 1.000000
outer loop
vertex 183.491745 -254.167160 2.000000
vertex 158.273285 -228.320007 2.000000
vertex 182.786285 -258.007660 2.000000
endloop
endfacet
facet normal 0.000000 0.000000 1.000000
outer loop
vertex 182.786285 -258.007660 2.000000
vertex 158.273285 -228.320007 2.000000
vertex 181.641937 -261.740936 2.000000
endloop
endfacet
facet normal 0.000000 0.000000 1.000000
outer loop
vertex 181.641937 -261.740936 2.000000
vertex 158.273285 -228.320007 2.000000
vertex 180.074066 -265.317078 2.000000
endloop
endfacet
facet normal 0.000000 0.000000 1.000000
outer loop
vertex 180.074066 -265.317078 2.000000
vertex 158.273285 -228.320007 2.000000
vertex 178.103622 -268.688202 2.000000
endloop
endfacet
facet normal 0.000000 0.000000 1.000000
outer loop
vertex 178.103622 -268.688202 2.000000
vertex 158.273285 -228.320007 2.000000
vertex 175.757004 -271.809143 2.000000
endloop
endfacet
facet normal 0.000000 0.000000 1.000000
outer loop
vertex 175.757004 -271.809143 2.000000
vertex 158.273285 -228.320007 2.000000
vertex 173.065613 -274.638184 2.000000
endloop
endfacet
facet normal 0.000000 0.000000 1.000000
outer loop
vertex 173.065613 -274.638184 2.000000
vertex 158.273285 -228.320007 2.000000
vertex 170.065460 -277.137421 2.000000
endloop
endfacet
facet normal 0.000000 0.000000 1.000000
outer loop
vertex 170.065460 -277.137421 2.000000
vertex 158.273285 -228.320007 2.000000
vertex 166.796738 -279.273407 2.000000
endloop
endfacet
facet normal 0.000000 0.000000 1.000000
outer loop
vertex 166.796738 -279.273407 2.000000
vertex 158.273285 -228.320007 2.000000
vertex 163.303177 -281.017548 2.000000
endloop
endfacet
facet normal 0.000000 0.000000 1.000000
outer loop
vertex 163.303177 -281.017548 2.000000
vertex 158.273285 -228.320007 2.000000
vertex 159.631546 -282.346497 2.000000
endloop
endfacet
facet normal 0.000000 0.000000 1.000000
outer loop
vertex 159.631546 -282.346497 2.000000
vertex 158.273285 -228.320007 2.000000
vertex 155.830978 -283.242462 2.000000
endloop
endfacet
facet normal 0.000000 0.000000 1.000000
outer loop
vertex 155.830978 -283.242462 2.000000
vertex 158.273285 -228.320007 2.000000
vertex 151.952377 -283.693481 2.000000
endloop
endfacet
facet normal 0.000000 0.000000 1.000000
outer loop
vertex 151.952377 -283.693481 2.000000
vertex 158.273285 -228.320007 2.000000
vertex 141.726715 -228.320007 2.000000
endloop
endfacet
facet normal 0.000000 0.000000 1.000000
outer loop
vertex 151.952377 -283.693481 2.000000
vertex 141.726715 -228.320007 2.000000
vertex 148.047623 -283.693481 2.000000
endloop
endfacet
facet normal 0.000000 0.000000 1.000000
outer loop
vertex 148.047623 -283.693481 2.000000
vertex 141.726715 -228.320007 2.000000
vertex 144.169022 -283.242462 2.000000
endloop
endfacet
facet normal 0.000000 0.000000 1.000000
outer loop
vertex 144.169022 -283.242462 2.000000
vertex 141.726715 -228.320007 2.000000
vertex 140.368454 -282.346497 2.000000
endloop
endfacet
facet normal 0.000000 0.000000 1.000000
outer loop
vertex 140.368454 -282.346497 2.000000
vertex 141.726715 -228.320007 2.000000
vertex 136.696823 -281.017548 2.000000
endloop
endfacet
facet normal 0.000000 0.000000 1.000000
outer loop
vertex 136.696823 -281.017548 2.000000
vertex 141.726715 -228.320007 2.000000
vertex 133.203262 -279.273407 2.000000
endloop
endfacet
facet normal 0.000000 0.000000 1.000000
outer loop
vertex 133.203262 -279.273407 2.000000
vertex 141.726715 -228.320007 2.000000
vertex 129.934540 -277.137421 2.000000
endloop
endfacet
facet normal 0.000000 0.000000 1.000000
outer loop
vertex 129.934540 -277.137421 2.000000
vertex 141.726715 -228.320007 2.000000
vertex 126.934395 -274.638184 2.000000
endloop
endfacet
facet normal 0.000000 0.000000 1.000000
outer loop
vertex 126.934395 -274.638184 2.000000
vertex 141.726715 -228.320007 2.000000
vertex 124.242996 -271.809143 2.000000
endloop
endfacet
facet normal 0.000000 0.000000 1.000000
outer loop
vertex 124.242996 -271.809143 2.000000
vertex 141.726715 -228.320007 2.000000
vertex 121.896378 -268.688202 2.000000
endloop
endfacet
facet normal 0.000000 0.000000 1.000000
outer loop
vertex 121.896378 -268.688202 2.000000
vertex 141.726715 -228.320007 2.000000
vertex 119.925934 -265.317078 2.000000
endloop
endfacet
facet normal 0.000000 0.000000 1.000000
outer loop
vertex 119.925934 -265.317078 2.000000
vertex 141.726715 -228.320007 2.000000
vertex 118.358055 -261.740936 2.000000
endloop
endfacet
facet normal 0.000000 0.000000 1.000000
outer loop
vertex 118.358055 -261.740936 2.000000
vertex 141.726715 -228.320007 2.000000
vertex 117.213722 -258.007660 2.000000
endloop
endfacet
facet normal 0.000000 0.000000 1.000000
outer loop
vertex 117.213722 -258.007660 2.000000
vertex 141.726715 -228.320007 2.000000
vertex 116.508255 -254.167160 2.000000
endloop
endfacet
facet normal 0.000000 0.000000 1.000000
outer loop
vertex 116.508255 -254.167160 2.000000
vertex 141.726715 -228.320007 2.000000
vertex 116.251091 -250.270905 2.000000
endloop
endfacet
facet normal 0.000000 0.000000 1.000000
outer loop
vertex 116.251091 -250.270905 2.000000
vertex 141.726715 -228.320007 2.000000
vertex 116.445671 -246.371002 2.000000
endloop
endfacet
facet normal 0.000000 0.000000 1.000000
outer loop
vertex 116.445671 -246.371002 2.000000
vertex 141.726715 -228.320007 2.000000
vertex 117.089401 -242.519699 2.000000
endloop
endfacet
facet normal 0.000000 0.000000 1.000000
outer loop
vertex 117.089401 -242.519699 2.000000
vertex 141.726715 -228.320007 2.000000
vertex 118.173660 -238.768509 2.000000
endloop
endfacet
facet normal 0.000000 0.000000 1.000000
outer loop
vertex 118.173660 -238.768509 2.000000
vertex 141.726715 -228.320007 2.000000
vertex 119.683929 -235.167664 2.000000
endloop
endfacet
facet normal 0.000000 0.000000 1.000000
outer loop
vertex 119.683929 -235.167664 2.000000
vertex 141.726715 -228.320007 2.000000
vertex 121.599998 -231.765350 2.000000
endloop
endfacet
facet normal 0.000000 0.000000 1.000000
outer loop
vertex 121.599998 -231.765350 2.000000
vertex 141.726715 -228.320007 2.000000
vertex 123.896217 -228.607132 2.000000
endloop
endfacet
facet normal 0.000000 0.000000 1.000000
outer loop
vertex 123.896217 -228.607132 2.000000
vertex 141.726715 -228.320007 2.000000
vertex 126.541855 -225.735260 2.000000
endloop
endfacet
facet normal 0.000000 0.000000 1.000000
outer loop
vertex 126.541855 -225.735260 2.000000
vertex 141.726715 -228.320007 2.000000
vertex 137.986954 -224.262405 2.000000
endloop
endfacet
facet normal 0.000000 0.000000 1.000000
outer loop
vertex 126.541855 -225.735260 2.000000
vertex 137.986954 -224.262405 2.000000
vertex 129.501495 -223.188187 2.000000
endloop
endfacet
facet normal 0.000000 0.000000 1.000000
outer loop
vertex 129.501495 -223.188187 2.000000
vertex 137.986954 -224.262405 2.000000
vertex 132.735504 -221.000000 2.000000
endloop
endfacet
facet normal 0.000000 0.000000 1.000000
outer loop
vertex 132.735504 -221.000000 2.000000
vertex 137.986954 -224.262405 2.000000
vertex 141.164993 -221.000000 2.000000
endloop
endfacet
facet normal 0.000000 0.000000 1.000000
outer loop
vertex 141.164993 -221.000000 2.000000
vertex 137.986954 -224.262405 2.000000
vertex 141.164993 -221.333313 2.000000
endloop
endfacet
facet normal -0.560393 -0.828227 0.000000
outer loop
vertex 167.264496 -221.000000 10.000000
vertex 167.264496 -221.000000 2.000000
vertex 170.498505 -223.188187 10.000000
endloop
endfacet
facet normal -0.560393 -0.828227 0.000000
outer loop
vertex 170.498505 -223.188187 10.000000
vertex 167.264496 -221.000000 2.000000
vertex 170.498505 -223.188187 2.000000
endloop
endfacet
facet normal -0.652300 -0.757961 0.000000
outer loop
vertex 170.498505 -223.188187 10.000000
vertex 170.498505 -223.188187 2.000000
vertex 173.458145 -225.735260 10.000000
endloop
endfacet
facet normal -0.652304 -0.757958 0.000000
outer loop
vertex 173.458145 -225.735260 10.000000
vertex 170.498505 -223.188187 2.000000
vertex 173.458145 -225.735260 2.000000
endloop
endfacet
facet normal -0.735483 -0.677543 0.000000
outer loop
vertex 173.458145 -225.735260 10.000000
vertex 173.458145 -225.735260 2.000000
vertex 176.103775 -228.607132 10.000000
endloop
endfacet
facet normal -0.735483 -0.677543 0.000000
outer loop
vertex 176.103775 -228.607132 10.000000
vertex 173.458145 -225.735260 2.000000
vertex 176.103775 -228.607132 2.000000
endloop
endfacet
facet normal -0.808815 -0.588062 0.000000
outer loop
vertex 176.103775 -228.607132 10.000000
vertex 176.103775 -228.607132 2.000000
vertex 178.399994 -231.765350 10.000000
endloop
endfacet
facet normal -0.808819 -0.588057 0.000000
outer loop
vertex 178.399994 -231.765350 10.000000
vertex 176.103775 -228.607132 2.000000
vertex 178.399994 -231.765350 2.000000
endloop
endfacet
facet normal -0.871326 -0.490704 0.000000
outer loop
vertex 178.399994 -231.765350 10.000000
vertex 178.399994 -231.765350 2.000000
vertex 180.316071 -235.167664 10.000000
endloop
endfacet
facet normal -0.871326 -0.490704 0.000000
outer loop
vertex 180.316071 -235.167664 10.000000
vertex 178.399994 -231.765350 2.000000
vertex 180.316071 -235.167664 2.000000
endloop
endfacet
facet normal -0.922174 -0.386775 0.000000
outer loop
vertex 180.316071 -235.167664 10.000000
vertex 180.316071 -235.167664 2.000000
vertex 181.826340 -238.768509 10.000000
endloop
endfacet
facet normal -0.922171 -0.386782 0.000000
outer loop
vertex 181.826340 -238.768509 10.000000
vertex 180.316071 -235.167664 2.000000
vertex 181.826340 -238.768509 2.000000
endloop
endfacet
facet normal -0.960674 -0.277677 0.000000
outer loop
vertex 181.826340 -238.768509 10.000000
vertex 181.826340 -238.768509 2.000000
vertex 182.910599 -242.519699 10.000000
endloop
endfacet
facet normal -0.960674 -0.277677 0.000000
outer loop
vertex 182.910599 -242.519699 10.000000
vertex 181.826340 -238.768509 2.000000
vertex 182.910599 -242.519699 2.000000
endloop
endfacet
facet normal -0.986318 -0.164853 0.000000
outer loop
vertex 182.910599 -242.519699 10.000000
vertex 182.910599 -242.519699 2.000000
vertex 183.554321 -246.371002 10.000000
endloop
endfacet
facet normal -0.986317 -0.164861 0.000000
outer loop
vertex 183.554321 -246.371002 10.000000
vertex 182.910599 -242.519699 2.000000
vertex 183.554321 -246.371002 2.000000
endloop
endfacet
facet normal -0.998758 -0.049832 0.000000
outer loop
vertex 183.554321 -246.371002 10.000000
vertex 183.554321 -246.371002 2.000000
vertex 183.748917 -250.270905 10.000000
endloop
endfacet
facet normal -0.998757 -0.049839 0.000000
outer loop
vertex 183.748917 -250.270905 10.000000
vertex 183.554321 -246.371002 2.000000
vertex 183.748917 -250.270905 2.000000
endloop
endfacet
facet normal -0.997829 0.065862 0.000000
outer loop
vertex 183.748917 -250.270905 10.000000
vertex 183.748917 -250.270905 2.000000
vertex 183.491745 -254.167160 10.000000
endloop
endfacet
facet normal -0.997829 0.065862 0.000000
outer loop
vertex 183.491745 -254.167160 10.000000
vertex 183.748917 -250.270905 2.000000
vertex 183.491745 -254.167160 2.000000
endloop
endfacet
facet normal -0.983544 0.180671 0.000000
outer loop
vertex 183.491745 -254.167160 10.000000
vertex 183.491745 -254.167160 2.000000
vertex 182.786285 -258.007660 10.000000
endloop
endfacet
facet normal -0.983545 0.180663 0.000000
outer loop
vertex 182.786285 -258.007660 10.000000
vertex 183.491745 -254.167160 2.000000
vertex 182.786285 -258.007660 2.000000
endloop
endfacet
facet normal -0.956092 0.293067 0.000000
outer loop
vertex 182.786285 -258.007660 10.000000
vertex 182.786285 -258.007660 2.000000
vertex 181.641937 -261.740936 10.000000
endloop
endfacet
facet normal -0.956092 0.293067 0.000000
outer loop
vertex 181.641937 -261.740936 10.000000
vertex 182.786285 -258.007660 2.000000
vertex 181.641937 -261.740936 2.000000
endloop
endfacet
facet normal -0.915846 0.401530 0.000000
outer loop
vertex 181.641937 -261.740936 10.000000
vertex 181.641937 -261.740936 2.000000
vertex 180.074066 -265.317078 10.000000
endloop
endfacet
facet normal -0.915846 0.401530 0.000000
outer loop
vertex 180.074066 -265.317078 10.000000
vertex 181.641937 -261.740936 2.000000
vertex 180.074066 -265.317078 2.000000
endloop
endfacet
facet normal -0.863336 0.504629 0.000000
outer loop
vertex 180.074066 -265.317078 10.000000
vertex 180.074066 -265.317078 2.000000
vertex 178.103622 -268.688202 10.000000
endloop
endfacet
facet normal -0.863339 0.504624 0.000000
outer loop
vertex 178.103622 -268.688202 10.000000
vertex 180.074066 -265.317078 2.000000
vertex 178.103622 -268.688202 2.000000
endloop
endfacet
facet normal -0.799273 0.600969 0.000000
outer loop
vertex 178.103622 -268.688202 10.000000
vertex 178.103622 -268.688202 2.000000
vertex 175.757004 -271.809143 10.000000
endloop
endfacet
facet normal -0.799273 0.600969 0.000000
outer loop
vertex 175.757004 -271.809143 10.000000
vertex 178.103622 -268.688202 2.000000
vertex 175.757004 -271.809143 2.000000
endloop
endfacet
facet normal -0.724515 0.689259 0.000000
outer loop
vertex 175.757004 -271.809143 10.000000
vertex 175.757004 -271.809143 2.000000
vertex 173.065613 -274.638184 10.000000
endloop
endfacet
facet normal -0.724511 0.689263 0.000000
outer loop
vertex 173.065613 -274.638184 10.000000
vertex 175.757004 -271.809143 2.000000
vertex 173.065613 -274.638184 2.000000
endloop
endfacet
facet normal -0.640050 0.768333 0.000000
outer loop
vertex 173.065613 -274.638184 10.000000
vertex 173.065613 -274.638184 2.000000
vertex 170.065460 -277.137421 10.000000
endloop
endfacet
facet normal -0.640050 0.768333 0.000000
outer loop
vertex 170.065460 -277.137421 10.000000
vertex 173.065613 -274.638184 2.000000
vertex 170.065460 -277.137421 2.000000
endloop
endfacet
facet normal -0.547022 0.837118 0.000000
outer loop
vertex 170.065460 -277.137421 10.000000
vertex 170.065460 -277.137421 2.000000
vertex 166.796738 -279.273407 10.000000
endloop
endfacet
facet normal -0.547026 0.837116 0.000000
outer loop
vertex 166.796738 -279.273407 10.000000
vertex 170.065460 -277.137421 2.000000
vertex 166.796738 -279.273407 2.000000
endloop
endfacet
facet normal -0.446673 0.894697 0.000000
outer loop
vertex 166.796738 -279.273407 10.000000
vertex 166.796738 -279.273407 2.000000
vertex 163.303177 -281.017548 10.000000
endloop
endfacet
facet normal -0.446673 0.894697 0.000000
outer loop
vertex 163.303177 -281.017548 10.000000
vertex 166.796738 -279.273407 2.000000
vertex 163.303177 -281.017548 2.000000
endloop
endfacet
facet normal -0.340343 0.940301 0.000000
outer loop
vertex 163.303177 -281.017548 10.000000
vertex 163.303177 -281.017548 2.000000
vertex 159.631546 -282.346497 10.000000
endloop
endfacet
facet normal -0.340343 0.940301 0.000000
outer loop
vertex 159.631546 -282.346497 10.000000
vertex 163.303177 -281.017548 2.000000
vertex 159.631546 -282.346497 2.000000
endloop
endfacet
facet normal -0.229455 0.973319 0.000000
outer loop
vertex 159.631546 -282.346497 10.000000
vertex 159.631546 -282.346497 2.000000
vertex 155.830978 -283.242462 10.000000
endloop
endfacet
facet normal -0.229455 0.973319 0.000000
outer loop
vertex 155.830978 -283.242462 10.000000
vertex 159.631546 -282.346497 2.000000
vertex 155.830978 -283.242462 2.000000
endloop
endfacet
facet normal -0.115506 0.993307 0.000000
outer loop
vertex 155.830978 -283.242462 10.000000
vertex 155.830978 -283.242462 2.000000
vertex 151.952377 -283.693481 10.000000
endloop
endfacet
facet normal -0.115506 0.993307 0.000000
outer loop
vertex 151.952377 -283.693481 10.000000
vertex 155.830978 -283.242462 2.000000
vertex 151.952377 -283.693481 2.000000
endloop
endfacet
facet normal 0.000000 1.000000 0.000000
outer loop
vertex 151.952377 -283.693481 10.000000
vertex 151.952377 -283.693481 2.000000
vertex 148.047623 -283.693481 10.000000
endloop
endfacet
facet normal 0.000000 1.000000 0.000000
outer loop
vertex 148.047623 -283.693481 10.000000
vertex 151.952377 -283.693481 2.000000
vertex 148.047623 -283.693481 2.000000
endloop
endfacet
facet normal 0.115506 0.993307 0.000000
outer loop
vertex 148.047623 -283.693481 10.000000
vertex 148.047623 -283.693481 2.000000
vertex 144.169022 -283.242462 10.000000
endloop
endfacet
facet normal 0.115506 0.993307 0.000000
outer loop
vertex 144.169022 -283.242462 10.000000
vertex 148.047623 -283.693481 2.000000
vertex 144.169022 -283.242462 2.000000
endloop
endfacet
facet normal 0.229455 0.973319 0.000000
outer loop
vertex 144.169022 -283.242462 10.000000
vertex 144.169022 -283.242462 2.000000
vertex 140.368454 -282.346497 10.000000
endloop
endfacet
facet normal 0.229455 0.973319 0.000000
outer loop
vertex 140.368454 -282.346497 10.000000
vertex 144.169022 -283.242462 2.000000
vertex 140.368454 -282.346497 2.000000
endloop
endfacet
facet normal 0.340343 0.940301 0.000000
outer loop
vertex 140.368454 -282.346497 10.000000
vertex 140.368454 -282.346497 2.000000
vertex 136.696823 -281.017548 10.000000
endloop
endfacet
facet normal 0.340343 0.940301 0.000000
outer loop
vertex 136.696823 -281.017548 10.000000
vertex 140.368454 -282.346497 2.000000
vertex 136.696823 -281.017548 2.000000
endloop
endfacet
facet normal 0.446673 0.894697 0.000000
outer loop
vertex 136.696823 -281.017548 10.000000
vertex 136.696823 -281.017548 2.000000
vertex 133.203262 -279.273407 10.000000
endloop
endfacet
facet normal 0.446673 0.894697 0.000000
outer loop
vertex 133.203262 -279.273407 10.000000
vertex 136.696823 -281.017548 2.000000
vertex 133.203262 -279.273407 2.000000
endloop
endfacet
facet normal 0.547026 0.837116 0.000000
outer loop
vertex 133.203262 -279.273407 10.000000
vertex 133.203262 -279.273407 2.000000
vertex 129.934540 -277.137421 10.000000
endloop
endfacet
facet normal 0.547022 0.837118 0.000000
outer loop
vertex 129.934540 -277.137421 10.000000
vertex 133.203262 -279.273407 2.000000
vertex 129.934540 -277.137421 2.000000
endloop
endfacet
facet normal 0.640050 0.768333 0.000000
outer loop
vertex 129.934540 -277.137421 10.000000
vertex 129.934540 -277.137421 2.000000
vertex 126.934395 -274.638184 10.000000
endloop
endfacet
facet normal 0.640052 0.768332 0.000000
outer loop
vertex 126.934395 -274.638184 10.000000
vertex 129.934540 -277.137421 2.000000
vertex 126.934395 -274.638184 2.000000
endloop
endfacet
facet normal 0.724513 0.689261 0.000000
outer loop
vertex 126.934395 -274.638184 10.000000
vertex 126.934395 -274.638184 2.000000
vertex 124.242996 -271.809143 10.000000
endloop
endfacet
facet normal 0.724511 0.689263 0.000000
outer loop
vertex 124.242996 -271.809143 10.000000
vertex 126.934395 -274.638184 2.000000
vertex 124.242996 -271.809143 2.000000
endloop
endfacet
facet normal 0.799273 0.600969 0.000000
outer loop
vertex 124.242996 -271.809143 10.000000
vertex 124.242996 -271.809143 2.000000
vertex 121.896378 -268.688202 10.000000
endloop
endfacet
facet normal 0.799273 0.600969 0.000000
outer loop
vertex 121.896378 -268.688202 10.000000
vertex 124.242996 -271.809143 2.000000
vertex 121.896378 -268.688202 2.000000
endloop
endfacet
facet normal 0.863338 0.504626 0.000000
outer loop
vertex 121.896378 -268.688202 10.000000
vertex 121.896378 -268.688202 2.000000
vertex 119.925934 -265.317078 10.000000
endloop
endfacet
facet normal 0.863338 0.504626 0.000000
outer loop
vertex 119.925934 -265.317078 10.000000
vertex 121.896378 -268.688202 2.000000
vertex 119.925934 -265.317078 2.000000
endloop
endfacet
facet normal 0.915846 0.401530 0.000000
outer loop
vertex 119.925934 -265.317078 10.000000
vertex 119.925934 -265.317078 2.000000
vertex 118.358055 -261.740936 10.000000
endloop
endfacet
facet normal 0.915844 0.401533 0.000000
outer loop
vertex 118.358055 -261.740936 10.000000
vertex 119.925934 -265.317078 2.000000
vertex 118.358055 -261.740936 2.000000
endloop
endfacet
facet normal 0.956093 0.293064 0.000000
outer loop
vertex 118.358055 -261.740936 10.000000
vertex 118.358055 -261.740936 2.000000
vertex 117.213722 -258.007660 10.000000
endloop
endfacet
facet normal 0.956093 0.293064 0.000000
outer loop
vertex 117.213722 -258.007660 10.000000
vertex 118.358055 -261.740936 2.000000
vertex 117.213722 -258.007660 2.000000
endloop
endfacet
facet normal 0.983544 0.180667 0.000000
outer loop
vertex 117.213722 -258.007660 10.000000
vertex 117.213722 -258.007660 2.000000
vertex 116.508255 -254.167160 10.000000
endloop
endfacet
facet normal 0.983544 0.180671 0.000000
outer loop
vertex 116.508255 -254.167160 10.000000
vertex 117.213722 -258.007660 2.000000
vertex 116.508255 -254.167160 2.000000
endloop
endfacet
facet normal 0.997829 0.065862 0.000000
outer loop
vertex 116.508255 -254.167160 10.000000
vertex 116.508255 -254.167160 2.000000
vertex 116.251091 -250.270905 10.000000
endloop
endfacet
facet normal 0.997829 0.065858 0.000000
outer loop
vertex 116.251091 -250.270905 10.000000
vertex 116.508255 -254.167160 2.000000
vertex 116.251091 -250.270905 2.000000
endloop
endfacet
facet normal 0.998758 -0.049832 0.000000
outer loop
vertex 116.251091 -250.270905 10.000000
vertex 116.251091 -250.270905 2.000000
vertex 116.445671 -246.371002 10.000000
endloop
endfacet
facet normal 0.998758 -0.049832 0.000000
outer loop
vertex 116.445671 -246.371002 10.000000
vertex 116.251091 -250.270905 2.000000
vertex 116.445671 -246.371002 2.000000
endloop
endfacet
facet normal 0.986317 -0.164857 0.000000
outer loop
vertex 116.445671 -246.371002 10.000000
vertex 116.445671 -246.371002 2.000000
vertex 117.089401 -242.519699 10.000000
endloop
endfacet
facet normal 0.986317 -0.164861 0.000000
outer loop
vertex 117.089401 -242.519699 10.000000
vertex 116.445671 -246.371002 2.000000
vertex 117.089401 -242.519699 2.000000
endloop
endfacet
facet normal 0.960674 -0.277677 0.000000
outer loop
vertex 117.089401 -242.519699 10.000000
vertex 117.089401 -242.519699 2.000000
vertex 118.173660 -238.768509 10.000000
endloop
endfacet
facet normal 0.960674 -0.277677 0.000000
outer loop
vertex 118.173660 -238.768509 10.000000
vertex 117.089401 -242.519699 2.000000
vertex 118.173660 -238.768509 2.000000
endloop
endfacet
facet normal 0.922173 -0.386778 0.000000
outer loop
vertex 118.173660 -238.768509 10.000000
vertex 118.173660 -238.768509 2.000000
vertex 119.683929 -235.167664 10.000000
endloop
endfacet
facet normal 0.922173 -0.386778 0.000000
outer loop
vertex 119.683929 -235.167664 10.000000
vertex 118.173660 -238.768509 2.000000
vertex 119.683929 -235.167664 2.000000
endloop
endfacet
facet normal 0.871326 -0.490704 0.000000
outer loop
vertex 119.683929 -235.167664 10.000000
vertex 119.683929 -235.167664 2.000000
vertex 121.599998 -231.765350 10.000000
endloop
endfacet
facet normal 0.871328 -0.490701 0.000000
outer loop
vertex 121.599998 -231.765350 10.000000
vertex 119.683929 -235.167664 2.000000
vertex 121.599998 -231.765350 2.000000
endloop
endfacet
facet normal 0.808817 -0.588060 0.000000
outer loop
vertex 121.599998 -231.765350 10.000000
vertex 121.599998 -231.765350 2.000000
vertex 123.896217 -228.607132 10.000000
endloop
endfacet
facet normal 0.808817 -0.588060 0.000000
outer loop
vertex 123.896217 -228.607132 10.000000
vertex 121.599998 -231.765350 2.000000
vertex 123.896217 -228.607132 2.000000
endloop
endfacet
facet normal 0.735481 -0.677545 0.000000
outer loop
vertex 123.896217 -228.607132 10.000000
vertex 123.896217 -228.607132 2.000000
vertex 126.541855 -225.735260 10.000000
endloop
endfacet
facet normal 0.735483 -0.677543 0.000000
outer loop
vertex 126.541855 -225.735260 10.000000
vertex 123.896217 -228.607132 2.000000
vertex 126.541855 -225.735260 2.000000
endloop
endfacet
facet normal 0.652304 -0.757958 0.000000
outer loop
vertex 126.541855 -225.735260 10.000000
vertex 126.541855 -225.735260 2.000000
vertex 129.501495 -223.188187 10.000000
endloop
endfacet
facet normal 0.652300 -0.757961 0.000000
outer loop
vertex 129.501495 -223.188187 10.000000
vertex 126.541855 -225.735260 2.000000
vertex 129.501495 -223.188187 2.000000
endloop
endfacet
facet normal 0.560393 -0.828227 0.000000
outer loop
vertex 129.501495 -223.188187 10.000000
vertex 129.501495 -223.188187 2.000000
vertex 132.735504 -221.000000 10.000000
endloop
endfacet
facet normal 0.560393 -0.828227 0.000000
outer loop
vertex 132.735504 -221.000000 10.000000
vertex 129.501495 -223.188187 2.000000
vertex 132.735504 -221.000000 2.000000
endloop
endfacet
facet normal 0.000000 1.000000 0.000000
outer loop
vertex 142.164993 -220.000000 0.000000
vertex 131.491547 -220.000000 0.000000
vertex 142.164993 -220.000000 10.000000
endloop
endfacet
facet normal 0.000000 1.000000 0.000000
outer loop
vertex 142.164993 -220.000000 10.000000
vertex 131.491547 -220.000000 0.000000
vertex 131.491547 -220.000000 10.000000
endloop
endfacet
facet normal 1.000000 0.000000 0.000000
outer loop
vertex 142.164993 -221.771591 0.000000
vertex 142.164993 -220.000000 0.000000
vertex 142.164993 -221.771591 10.000000
endloop
endfacet
facet normal 1.000000 0.000000 0.000000
outer loop
vertex 142.164993 -221.771591 10.000000
vertex 142.164993 -220.000000 0.000000
vertex 142.164993 -220.000000 10.000000
endloop
endfacet
facet normal 0.677722 -0.735318 0.000000
outer loop
vertex 139.399994 -224.320007 0.000000
vertex 142.164993 -221.771591 0.000000
vertex 139.399994 -224.320007 10.000000
endloop
endfacet
facet normal 0.677722 -0.735318 0.000000
outer loop
vertex 139.399994 -224.320007 10.000000
vertex 142.164993 -221.771591 0.000000
vertex 142.164993 -221.771591 10.000000
endloop
endfacet
facet normal 0.735322 0.677718 0.000000
outer loop
vertex 142.164993 -227.320007 0.000000
vertex 139.399994 -224.320007 0.000000
vertex 142.164993 -227.320007 3.250000
endloop
endfacet
facet normal 0.735321 0.677719 0.000000
outer loop
vertex 142.164993 -227.320007 3.250000
vertex 139.399994 -224.320007 0.000000
vertex 139.399994 -224.320007 10.000000
endloop
endfacet
facet normal 0.735322 0.677718 0.000000
outer loop
vertex 142.164993 -227.320007 3.250000
vertex 139.399994 -224.320007 10.000000
vertex 142.164993 -227.320007 8.000000
endloop
endfacet
facet normal 0.735322 0.677718 0.000000
outer loop
vertex 142.164993 -227.320007 8.000000
vertex 139.399994 -224.320007 10.000000
vertex 142.164993 -227.320007 10.000000
endloop
endfacet
facet normal 0.000000 1.000000 0.000000
outer loop
vertex 157.835007 -227.320007 8.000000
vertex 142.164993 -227.320007 8.000000
vertex 157.835007 -227.320007 10.000000
endloop
endfacet
facet normal 0.000000 1.000000 0.000000
outer loop
vertex 157.835007 -227.320007 10.000000
vertex 142.164993 -227.320007 8.000000
vertex 142.164993 -227.320007 10.000000
endloop
endfacet
facet normal 0.000000 1.000000 0.000000
outer loop
vertex 157.835007 -220.000000 10.000000
vertex 168.508453 -220.000000 10.000000
vertex 157.835007 -220.000000 0.000000
endloop
endfacet
facet normal 0.000000 1.000000 0.000000
outer loop
vertex 157.835007 -220.000000 0.000000
vertex 168.508453 -220.000000 10.000000
vertex 168.508453 -220.000000 0.000000
endloop
endfacet
facet normal -1.000000 0.000000 0.000000
outer loop
vertex 157.835007 -220.000000 0.000000
vertex 157.835007 -221.771591 0.000000
vertex 157.835007 -220.000000 10.000000
endloop
endfacet
facet normal -1.000000 0.000000 0.000000
outer loop
vertex 157.835007 -220.000000 10.000000
vertex 157.835007 -221.771591 0.000000
vertex 157.835007 -221.771591 10.000000
endloop
endfacet
facet normal -0.677722 -0.735318 0.000000
outer loop
vertex 157.835007 -221.771591 0.000000
vertex 160.600006 -224.320007 0.000000
vertex 157.835007 -221.771591 10.000000
endloop
endfacet
facet normal -0.677722 -0.735318 0.000000
outer loop
vertex 157.835007 -221.771591 10.000000
vertex 160.600006 -224.320007 0.000000
vertex 160.600006 -224.320007 10.000000
endloop
endfacet
facet normal -0.735318 0.677722 0.000000
outer loop
vertex 160.600006 -224.320007 0.000000
vertex 157.835007 -227.320007 3.250000
vertex 160.600006 -224.320007 10.000000
endloop
endfacet
facet normal -0.735322 0.677718 0.000000
outer loop
vertex 160.600006 -224.320007 10.000000
vertex 157.835007 -227.320007 3.250000
vertex 157.835007 -227.320007 8.000000
endloop
endfacet
facet normal -0.735322 0.677718 0.000000
outer loop
vertex 160.600006 -224.320007 10.000000
vertex 157.835007 -227.320007 8.000000
vertex 157.835007 -227.320007 10.000000
endloop
endfacet
facet normal -0.735322 0.677718 0.000000
outer loop
vertex 160.600006 -224.320007 0.000000
vertex 157.835007 -227.320007 0.000000
vertex 157.835007 -227.320007 3.250000
endloop
endfacet
facet normal 0.572105 0.820181 0.000000
outer loop
vertex 168.508453 -220.000000 0.000000
vertex 168.508453 -220.000000 10.000000
vertex 171.760910 -222.268692 0.000000
endloop
endfacet
facet normal 0.572099 0.820185 0.000000
outer loop
vertex 171.760910 -222.268692 0.000000
vertex 168.508453 -220.000000 10.000000
vertex 171.760910 -222.268692 10.000000
endloop
endfacet
facet normal 0.660605 0.750734 0.000000
outer loop
vertex 171.760910 -222.268692 0.000000
vertex 171.760910 -222.268692 10.000000
vertex 174.737961 -224.888336 10.000000
endloop
endfacet
facet normal 0.660605 0.750734 0.000000
outer loop
vertex 171.760910 -222.268692 0.000000
vertex 174.737961 -224.888336 10.000000
vertex 174.737961 -224.888336 0.000000
endloop
endfacet
facet normal 0.740749 0.671782 0.000000
outer loop
vertex 174.737961 -224.888336 0.000000
vertex 174.737961 -224.888336 10.000000
vertex 177.401947 -227.825790 10.000000
endloop
endfacet
facet normal 0.740743 0.671789 0.000000
outer loop
vertex 174.737961 -224.888336 0.000000
vertex 177.401947 -227.825790 10.000000
vertex 177.401947 -227.825790 0.000000
endloop
endfacet
facet normal 0.811514 0.584333 0.000000
outer loop
vertex 177.401947 -227.825790 0.000000
vertex 177.401947 -227.825790 10.000000
vertex 179.719147 -231.043869 10.000000
endloop
endfacet
facet normal 0.811514 0.584333 0.000000
outer loop
vertex 177.401947 -227.825790 0.000000
vertex 179.719147 -231.043869 10.000000
vertex 179.719147 -231.043869 0.000000
endloop
endfacet
facet normal 0.872009 0.489490 0.000000
outer loop
vertex 179.719147 -231.043869 0.000000
vertex 179.719147 -231.043869 10.000000
vertex 181.660217 -234.501846 10.000000
endloop
endfacet
facet normal 0.872011 0.489486 0.000000
outer loop
vertex 179.719147 -231.043869 0.000000
vertex 181.660217 -234.501846 10.000000
vertex 181.660217 -234.501846 0.000000
endloop
endfacet
facet normal 0.921471 0.388448 0.000000
outer loop
vertex 181.660217 -234.501846 0.000000
vertex 181.660217 -234.501846 10.000000
vertex 183.200623 -238.155975 10.000000
endloop
endfacet
facet normal 0.921471 0.388448 0.000000
outer loop
vertex 181.660217 -234.501846 0.000000
vertex 183.200623 -238.155975 10.000000
vertex 183.200623 -238.155975 0.000000
endloop
endfacet
facet normal 0.959269 0.282494 0.000000
outer loop
vertex 183.200623 -238.155975 0.000000
vertex 183.200623 -238.155975 10.000000
vertex 184.320847 -241.959991 10.000000
endloop
endfacet
facet normal 0.959271 0.282488 0.000000
outer loop
vertex 183.200623 -238.155975 0.000000
vertex 184.320847 -241.959991 10.000000
vertex 184.320847 -241.959991 0.000000
endloop
endfacet
facet normal 0.984928 0.172963 0.000000
outer loop
vertex 184.320847 -241.959991 0.000000
vertex 184.320847 -241.959991 10.000000
vertex 185.006714 -245.865753 10.000000
endloop
endfacet
facet normal 0.984931 0.172951 0.000000
outer loop
vertex 184.320847 -241.959991 0.000000
vertex 185.006714 -245.865753 10.000000
vertex 185.006714 -245.865753 0.000000
endloop
endfacet
facet normal 0.998123 0.061246 0.000000
outer loop
vertex 185.006714 -245.865753 0.000000
vertex 185.006714 -245.865753 10.000000
vertex 185.249557 -249.823837 10.000000
endloop
endfacet
facet normal 0.998124 0.061233 0.000000
outer loop
vertex 185.006714 -245.865753 0.000000
vertex 185.249557 -249.823837 10.000000
vertex 185.249557 -249.823837 0.000000
endloop
endfacet
facet normal 0.998685 -0.051260 0.000000
outer loop
vertex 185.249557 -249.823837 0.000000
vertex 185.249557 -249.823837 10.000000
vertex 185.046295 -253.784149 10.000000
endloop
endfacet
facet normal 0.998685 -0.051260 0.000000
outer loop
vertex 185.249557 -249.823837 0.000000
vertex 185.046295 -253.784149 10.000000
vertex 185.046295 -253.784149 0.000000
endloop
endfacet
facet normal 0.986610 -0.163099 0.000000
outer loop
vertex 185.046295 -253.784149 0.000000
vertex 185.046295 -253.784149 10.000000
vertex 184.399490 -257.696594 10.000000
endloop
endfacet
facet normal 0.986608 -0.163111 0.000000
outer loop
vertex 185.046295 -253.784149 0.000000
vertex 184.399490 -257.696594 10.000000
vertex 184.399490 -257.696594 0.000000
endloop
endfacet
facet normal 0.962047 -0.272885 0.000000
outer loop
vertex 184.399490 -257.696594 0.000000
vertex 184.399490 -257.696594 10.000000
vertex 183.317352 -261.511597 10.000000
endloop
endfacet
facet normal 0.962047 -0.272885 0.000000
outer loop
vertex 184.399490 -257.696594 0.000000
vertex 183.317352 -261.511597 10.000000
vertex 183.317352 -261.511597 0.000000
endloop
endfacet
facet normal 0.925307 -0.379219 0.000000
outer loop
vertex 183.317352 -261.511597 0.000000
vertex 183.317352 -261.511597 10.000000
vertex 181.813553 -265.180939 10.000000
endloop
endfacet
facet normal 0.925307 -0.379219 0.000000
outer loop
vertex 183.317352 -261.511597 0.000000
vertex 181.813553 -265.180939 10.000000
vertex 181.813553 -265.180939 0.000000
endloop
endfacet
facet normal 0.876858 -0.480749 0.000000
outer loop
vertex 181.813553 -265.180939 0.000000
vertex 181.813553 -265.180939 10.000000
vertex 179.907120 -268.658142 10.000000
endloop
endfacet
facet normal 0.876856 -0.480753 0.000000
outer loop
vertex 181.813553 -265.180939 0.000000
vertex 179.907120 -268.658142 10.000000
vertex 179.907120 -268.658142 0.000000
endloop
endfacet
facet normal 0.817314 -0.576192 0.000000
outer loop
vertex 179.907120 -268.658142 0.000000
vertex 179.907120 -268.658142 10.000000
vertex 177.622208 -271.899231 10.000000
endloop
endfacet
facet normal 0.817314 -0.576192 0.000000
outer loop
vertex 179.907120 -268.658142 0.000000
vertex 177.622208 -271.899231 10.000000
vertex 177.622208 -271.899231 0.000000
endloop
endfacet
facet normal 0.747423 -0.664349 0.000000
outer loop
vertex 177.622208 -271.899231 0.000000
vertex 177.622208 -271.899231 10.000000
vertex 174.987717 -274.863159 10.000000
endloop
endfacet
facet normal 0.747426 -0.664346 0.000000
outer loop
vertex 177.622208 -271.899231 0.000000
vertex 174.987717 -274.863159 10.000000
vertex 174.987717 -274.863159 0.000000
endloop
endfacet
facet normal 0.668073 -0.744096 0.000000
outer loop
vertex 174.987717 -274.863159 0.000000
vertex 174.987717 -274.863159 10.000000
vertex 172.036987 -277.512421 10.000000
endloop
endfacet
facet normal 0.668073 -0.744096 0.000000
outer loop
vertex 174.987717 -274.863159 0.000000
vertex 172.036987 -277.512421 10.000000
vertex 172.036987 -277.512421 0.000000
endloop
endfacet
facet normal 0.580272 -0.814422 0.000000
outer loop
vertex 172.036987 -277.512421 0.000000
vertex 172.036987 -277.512421 10.000000
vertex 168.807373 -279.813507 10.000000
endloop
endfacet
facet normal 0.580272 -0.814422 0.000000
outer loop
vertex 172.036987 -277.512421 0.000000
vertex 168.807373 -279.813507 10.000000
vertex 168.807373 -279.813507 0.000000
endloop
endfacet
facet normal 0.485121 -0.874447 0.000000
outer loop
vertex 168.807373 -279.813507 0.000000
vertex 168.807373 -279.813507 10.000000
vertex 165.339737 -281.737274 10.000000
endloop
endfacet
facet normal 0.485124 -0.874445 0.000000
outer loop
vertex 168.807373 -279.813507 0.000000
vertex 165.339737 -281.737274 10.000000
vertex 165.339737 -281.737274 0.000000
endloop
endfacet
facet normal 0.383839 -0.923400 0.000000
outer loop
vertex 165.339737 -281.737274 0.000000
vertex 165.339737 -281.737274 10.000000
vertex 161.677963 -283.259399 10.000000
endloop
endfacet
facet normal 0.383839 -0.923400 0.000000
outer loop
vertex 165.339737 -281.737274 0.000000
vertex 161.677963 -283.259399 10.000000
vertex 161.677963 -283.259399 0.000000
endloop
endfacet
facet normal 0.277692 -0.960670 0.000000
outer loop
vertex 161.677963 -283.259399 0.000000
vertex 161.677963 -283.259399 10.000000
vertex 157.868393 -284.360596 10.000000
endloop
endfacet
facet normal 0.277692 -0.960670 0.000000
outer loop
vertex 161.677963 -283.259399 0.000000
vertex 157.868393 -284.360596 10.000000
vertex 157.868393 -284.360596 0.000000
endloop
endfacet
facet normal 0.168035 -0.985781 0.000000
outer loop
vertex 157.868393 -284.360596 0.000000
vertex 157.868393 -284.360596 10.000000
vertex 153.959259 -285.026947 10.000000
endloop
endfacet
facet normal 0.168036 -0.985781 0.000000
outer loop
vertex 157.868393 -284.360596 0.000000
vertex 153.959259 -285.026947 10.000000
vertex 153.959259 -285.026947 0.000000
endloop
endfacet
facet normal 0.056248 -0.998417 0.000000
outer loop
vertex 153.959259 -285.026947 0.000000
vertex 153.959259 -285.026947 10.000000
vertex 150.000000 -285.250000 10.000000
endloop
endfacet
facet normal 0.056248 -0.998417 0.000000
outer loop
vertex 153.959259 -285.026947 0.000000
vertex 150.000000 -285.250000 10.000000
vertex 150.000000 -285.250000 0.000000
endloop
endfacet
facet normal -0.056248 -0.998417 0.000000
outer loop
vertex 150.000000 -285.250000 0.000000
vertex 150.000000 -285.250000 10.000000
vertex 146.040741 -285.026947 10.000000
endloop
endfacet
facet normal -0.056248 -0.998417 0.000000
outer loop
vertex 150.000000 -285.250000 0.000000
vertex 146.040741 -285.026947 10.000000
vertex 146.040741 -285.026947 0.000000
endloop
endfacet
facet normal -0.168036 -0.985781 0.000000
outer loop
vertex 146.040741 -285.026947 0.000000
vertex 146.040741 -285.026947 10.000000
vertex 142.131607 -284.360596 10.000000
endloop
endfacet
facet normal -0.168035 -0.985781 0.000000
outer loop
vertex 146.040741 -285.026947 0.000000
vertex 142.131607 -284.360596 10.000000
vertex 142.131607 -284.360596 0.000000
endloop
endfacet
facet normal -0.277692 -0.960670 0.000000
outer loop
vertex 142.131607 -284.360596 0.000000
vertex 142.131607 -284.360596 10.000000
vertex 138.322037 -283.259399 10.000000
endloop
endfacet
facet normal -0.277692 -0.960670 0.000000
outer loop
vertex 142.131607 -284.360596 0.000000
vertex 138.322037 -283.259399 10.000000
vertex 138.322037 -283.259399 0.000000
endloop
endfacet
facet normal -0.383839 -0.923400 0.000000
outer loop
vertex 138.322037 -283.259399 0.000000
vertex 138.322037 -283.259399 10.000000
vertex 134.660263 -281.737274 10.000000
endloop
endfacet
facet normal -0.383839 -0.923400 0.000000
outer loop
vertex 138.322037 -283.259399 0.000000
vertex 134.660263 -281.737274 10.000000
vertex 134.660263 -281.737274 0.000000
endloop
endfacet
facet normal -0.485124 -0.874445 0.000000
outer loop
vertex 134.660263 -281.737274 0.000000
vertex 134.660263 -281.737274 10.000000
vertex 131.192627 -279.813507 10.000000
endloop
endfacet
facet normal -0.485121 -0.874447 0.000000
outer loop
vertex 134.660263 -281.737274 0.000000
vertex 131.192627 -279.813507 10.000000
vertex 131.192627 -279.813507 0.000000
endloop
endfacet
facet normal -0.580272 -0.814422 0.000000
outer loop
vertex 131.192627 -279.813507 0.000000
vertex 131.192627 -279.813507 10.000000
vertex 127.963005 -277.512421 10.000000
endloop
endfacet
facet normal -0.580270 -0.814425 0.000000
outer loop
vertex 131.192627 -279.813507 0.000000
vertex 127.963005 -277.512421 10.000000
vertex 127.963005 -277.512421 0.000000
endloop
endfacet
facet normal -0.668076 -0.744093 0.000000
outer loop
vertex 127.963005 -277.512421 0.000000
vertex 127.963005 -277.512421 10.000000
vertex 125.012283 -274.863159 10.000000
endloop
endfacet
facet normal -0.668073 -0.744096 0.000000
outer loop
vertex 127.963005 -277.512421 0.000000
vertex 125.012283 -274.863159 10.000000
vertex 125.012283 -274.863159 0.000000
endloop
endfacet
facet normal -0.747426 -0.664346 0.000000
outer loop
vertex 125.012283 -274.863159 0.000000
vertex 125.012283 -274.863159 10.000000
vertex 122.377792 -271.899231 10.000000
endloop
endfacet
facet normal -0.747423 -0.664349 0.000000
outer loop
vertex 125.012283 -274.863159 0.000000
vertex 122.377792 -271.899231 10.000000
vertex 122.377792 -271.899231 0.000000
endloop
endfacet
facet normal -0.817314 -0.576192 0.000000
outer loop
vertex 122.377792 -271.899231 0.000000
vertex 122.377792 -271.899231 10.000000
vertex 120.092873 -268.658142 10.000000
endloop
endfacet
facet normal -0.817311 -0.576197 0.000000
outer loop
vertex 122.377792 -271.899231 0.000000
vertex 120.092873 -268.658142 10.000000
vertex 120.092873 -268.658142 0.000000
endloop
endfacet
facet normal -0.876858 -0.480749 0.000000
outer loop
vertex 120.092873 -268.658142 0.000000
vertex 120.092873 -268.658142 10.000000
vertex 118.186455 -265.180939 10.000000
endloop
endfacet
facet normal -0.876858 -0.480749 0.000000
outer loop
vertex 120.092873 -268.658142 0.000000
vertex 118.186455 -265.180939 10.000000
vertex 118.186455 -265.180939 0.000000
endloop
endfacet
facet normal -0.925309 -0.379214 0.000000
outer loop
vertex 118.186455 -265.180939 0.000000
vertex 118.186455 -265.180939 10.000000
vertex 116.682655 -261.511597 10.000000
endloop
endfacet
facet normal -0.925307 -0.379219 0.000000
outer loop
vertex 118.186455 -265.180939 0.000000
vertex 116.682655 -261.511597 10.000000
vertex 116.682655 -261.511597 0.000000
endloop
endfacet
facet normal -0.962047 -0.272885 0.000000
outer loop
vertex 116.682655 -261.511597 0.000000
vertex 116.682655 -261.511597 10.000000
vertex 115.600510 -257.696594 10.000000
endloop
endfacet
facet normal -0.962045 -0.272891 0.000000
outer loop
vertex 116.682655 -261.511597 0.000000
vertex 115.600510 -257.696594 10.000000
vertex 115.600510 -257.696594 0.000000
endloop
endfacet
facet normal -0.986609 -0.163105 0.000000
outer loop
vertex 115.600510 -257.696594 0.000000
vertex 115.600510 -257.696594 10.000000
vertex 114.953705 -253.784149 10.000000
endloop
endfacet
facet normal -0.986609 -0.163105 0.000000
outer loop
vertex 115.600510 -257.696594 0.000000
vertex 114.953705 -253.784149 10.000000
vertex 114.953705 -253.784149 0.000000
endloop
endfacet
facet normal -0.998685 -0.051260 0.000000
outer loop
vertex 114.953705 -253.784149 0.000000
vertex 114.953705 -253.784149 10.000000
vertex 114.750443 -249.823837 10.000000
endloop
endfacet
facet normal -0.998685 -0.051260 0.000000
outer loop
vertex 114.953705 -253.784149 0.000000
vertex 114.750443 -249.823837 10.000000
vertex 114.750443 -249.823837 0.000000
endloop
endfacet
facet normal -0.998124 0.061233 0.000000
outer loop
vertex 114.750443 -249.823837 0.000000
vertex 114.750443 -249.823837 10.000000
vertex 114.993279 -245.865753 10.000000
endloop
endfacet
facet normal -0.998123 0.061239 0.000000
outer loop
vertex 114.750443 -249.823837 0.000000
vertex 114.993279 -245.865753 10.000000
vertex 114.993279 -245.865753 0.000000
endloop
endfacet
facet normal -0.984929 0.172957 0.000000
outer loop
vertex 114.993279 -245.865753 0.000000
vertex 114.993279 -245.865753 10.000000
vertex 115.679153 -241.959991 10.000000
endloop
endfacet
facet normal -0.984928 0.172963 0.000000
outer loop
vertex 114.993279 -245.865753 0.000000
vertex 115.679153 -241.959991 10.000000
vertex 115.679153 -241.959991 0.000000
endloop
endfacet
facet normal -0.959269 0.282494 0.000000
outer loop
vertex 115.679153 -241.959991 0.000000
vertex 115.679153 -241.959991 10.000000
vertex 116.799377 -238.155975 10.000000
endloop
endfacet
facet normal -0.959271 0.282488 0.000000
outer loop
vertex 115.679153 -241.959991 0.000000
vertex 116.799377 -238.155975 10.000000
vertex 116.799377 -238.155975 0.000000
endloop
endfacet
facet normal -0.921471 0.388448 0.000000
outer loop
vertex 116.799377 -238.155975 0.000000
vertex 116.799377 -238.155975 10.000000
vertex 118.339775 -234.501846 10.000000
endloop
endfacet
facet normal -0.921473 0.388443 0.000000
outer loop
vertex 116.799377 -238.155975 0.000000
vertex 118.339775 -234.501846 10.000000
vertex 118.339775 -234.501846 0.000000
endloop
endfacet
facet normal -0.872009 0.489490 0.000000
outer loop
vertex 118.339775 -234.501846 0.000000
vertex 118.339775 -234.501846 10.000000
vertex 120.280853 -231.043869 10.000000
endloop
endfacet
facet normal -0.872009 0.489490 0.000000
outer loop
vertex 118.339775 -234.501846 0.000000
vertex 120.280853 -231.043869 10.000000
vertex 120.280853 -231.043869 0.000000
endloop
endfacet
facet normal -0.811514 0.584333 0.000000
outer loop
vertex 120.280853 -231.043869 0.000000
vertex 120.280853 -231.043869 10.000000
vertex 122.598053 -227.825790 10.000000
endloop
endfacet
facet normal -0.811514 0.584333 0.000000
outer loop
vertex 120.280853 -231.043869 0.000000
vertex 122.598053 -227.825790 10.000000
vertex 122.598053 -227.825790 0.000000
endloop
endfacet
facet normal -0.740746 0.671785 0.000000
outer loop
vertex 122.598053 -227.825790 0.000000
vertex 122.598053 -227.825790 10.000000
vertex 125.262032 -224.888336 10.000000
endloop
endfacet
facet normal -0.740746 0.671785 0.000000
outer loop
vertex 122.598053 -227.825790 0.000000
vertex 125.262032 -224.888336 10.000000
vertex 125.262032 -224.888336 0.000000
endloop
endfacet
facet normal -0.660605 0.750734 0.000000
outer loop
vertex 125.262032 -224.888336 0.000000
vertex 125.262032 -224.888336 10.000000
vertex 128.239090 -222.268692 10.000000
endloop
endfacet
facet normal -0.660605 0.750734 0.000000
outer loop
vertex 125.262032 -224.888336 0.000000
vertex 128.239090 -222.268692 10.000000
vertex 128.239090 -222.268692 0.000000
endloop
endfacet
facet normal -0.572099 0.820185 0.000000
outer loop
vertex 128.239090 -222.268692 0.000000
vertex 128.239090 -222.268692 10.000000
vertex 131.491547 -220.000000 0.000000
endloop
endfacet
facet normal -0.572105 0.820181 0.000000
outer loop
vertex 131.491547 -220.000000 0.000000
vertex 128.239090 -222.268692 10.000000
vertex 131.491547 -220.000000 10.000000
endloop
endfacet
facet normal 0.000000 0.000000 1.000000
outer loop
vertex 170.498505 -223.188187 10.000000
vertex 168.508453 -220.000000 10.000000
vertex 167.264496 -221.000000 10.000000
endloop
endfacet
facet normal 0.000000 0.000000 1.000000
outer loop
vertex 167.264496 -221.000000 10.000000
vertex 168.508453 -220.000000 10.000000
vertex 157.835007 -220.000000 10.000000
endloop
endfacet
facet normal 0.000000 0.000000 1.000000
outer loop
vertex 167.264496 -221.000000 10.000000
vertex 157.835007 -220.000000 10.000000
vertex 158.835007 -221.000000 10.000000
endloop
endfacet
facet normal 0.000000 0.000000 1.000000
outer loop
vertex 158.835007 -221.000000 10.000000
vertex 157.835007 -220.000000 10.000000
vertex 157.835007 -221.771591 10.000000
endloop
endfacet
facet normal 0.000000 0.000000 1.000000
outer loop
vertex 158.835007 -221.000000 10.000000
vertex 157.835007 -221.771591 10.000000
vertex 158.835007 -221.333313 10.000000
endloop
endfacet
facet normal 0.000000 0.000000 1.000000
outer loop
vertex 158.835007 -221.333313 10.000000
vertex 157.835007 -221.771591 10.000000
vertex 160.600006 -224.320007 10.000000
endloop
endfacet
facet normal 0.000000 0.000000 1.000000
outer loop
vertex 158.835007 -221.333313 10.000000
vertex 160.600006 -224.320007 10.000000
vertex 162.013046 -224.262405 10.000000
endloop
endfacet
facet normal 0.000000 0.000000 1.000000
outer loop
vertex 162.013046 -224.262405 10.000000
vertex 160.600006 -224.320007 10.000000
vertex 158.273285 -228.320007 10.000000
endloop
endfacet
facet normal 0.000000 0.000000 1.000000
outer loop
vertex 158.273285 -228.320007 10.000000
vertex 160.600006 -224.320007 10.000000
vertex 157.835007 -227.320007 10.000000
endloop
endfacet
facet normal 0.000000 0.000000 1.000000
outer loop
vertex 158.273285 -228.320007 10.000000
vertex 157.835007 -227.320007 10.000000
vertex 142.164993 -227.320007 10.000000
endloop
endfacet
facet normal 0.000000 0.000000 1.000000
outer loop
vertex 168.508453 -220.000000 10.000000
vertex 170.498505 -223.188187 10.000000
vertex 171.760910 -222.268692 10.000000
endloop
endfacet
facet normal 0.000000 0.000000 1.000000
outer loop
vertex 171.760910 -222.268692 10.000000
vertex 170.498505 -223.188187 10.000000
vertex 173.458145 -225.735260 10.000000
endloop
endfacet
facet normal 0.000000 0.000000 1.000000
outer loop
vertex 171.760910 -222.268692 10.000000
vertex 173.458145 -225.735260 10.000000
vertex 174.737961 -224.888336 10.000000
endloop
endfacet
facet normal 0.000000 0.000000 1.000000
outer loop
vertex 174.737961 -224.888336 10.000000
vertex 173.458145 -225.735260 10.000000
vertex 176.103775 -228.607132 10.000000
endloop
endfacet
facet normal 0.000000 0.000000 1.000000
outer loop
vertex 174.737961 -224.888336 10.000000
vertex 176.103775 -228.607132 10.000000
vertex 177.401947 -227.825790 10.000000
endloop
endfacet
facet normal 0.000000 0.000000 1.000000
outer loop
vertex 177.401947 -227.825790 10.000000
vertex 176.103775 -228.607132 10.000000
vertex 178.399994 -231.765350 10.000000
endloop
endfacet
facet normal 0.000000 0.000000 1.000000
outer loop
vertex 177.401947 -227.825790 10.000000
vertex 178.399994 -231.765350 10.000000
vertex 179.719147 -231.043869 10.000000
endloop
endfacet
facet normal 0.000000 0.000000 1.000000
outer loop
vertex 179.719147 -231.043869 10.000000
vertex 178.399994 -231.765350 10.000000
vertex 181.660217 -234.501846 10.000000
endloop
endfacet
facet normal 0.000000 0.000000 1.000000
outer loop
vertex 181.660217 -234.501846 10.000000
vertex 178.399994 -231.765350 10.000000
vertex 180.316071 -235.167664 10.000000
endloop
endfacet
facet normal 0.000000 0.000000 1.000000
outer loop
vertex 181.660217 -234.501846 10.000000
vertex 180.316071 -235.167664 10.000000
vertex 183.200623 -238.155975 10.000000
endloop
endfacet
facet normal 0.000000 0.000000 1.000000
outer loop
vertex 183.200623 -238.155975 10.000000
vertex 180.316071 -235.167664 10.000000
vertex 181.826340 -238.768509 10.000000
endloop
endfacet
facet normal 0.000000 0.000000 1.000000
outer loop
vertex 183.200623 -238.155975 10.000000
vertex 181.826340 -238.768509 10.000000
vertex 184.320847 -241.959991 10.000000
endloop
endfacet
facet normal 0.000000 0.000000 1.000000
outer loop
vertex 184.320847 -241.959991 10.000000
vertex 181.826340 -238.768509 10.000000
vertex 182.910599 -242.519699 10.000000
endloop
endfacet
facet normal 0.000000 0.000000 1.000000
outer loop
vertex 184.320847 -241.959991 10.000000
vertex 182.910599 -242.519699 10.000000
vertex 185.006714 -245.865753 10.000000
endloop
endfacet
facet normal 0.000000 0.000000 1.000000
outer loop
vertex 185.006714 -245.865753 10.000000
vertex 182.910599 -242.519699 10.000000
vertex 183.554321 -246.371002 10.000000
endloop
endfacet
facet normal 0.000000 0.000000 1.000000
outer loop
vertex 185.006714 -245.865753 10.000000
vertex 183.554321 -246.371002 10.000000
vertex 185.249557 -249.823837 10.000000
endloop
endfacet
facet normal 0.000000 0.000000 1.000000
outer loop
vertex 185.249557 -249.823837 10.000000
vertex 183.554321 -246.371002 10.000000
vertex 183.748917 -250.270905 10.000000
endloop
endfacet
facet normal 0.000000 0.000000 1.000000
outer loop
vertex 185.249557 -249.823837 10.000000
vertex 183.748917 -250.270905 10.000000
vertex 185.046295 -253.784149 10.000000
endloop
endfacet
facet normal 0.000000 0.000000 1.000000
outer loop
vertex 185.046295 -253.784149 10.000000
vertex 183.748917 -250.270905 10.000000
vertex 183.491745 -254.167160 10.000000
endloop
endfacet
facet normal 0.000000 0.000000 1.000000
outer loop
vertex 185.046295 -253.784149 10.000000
vertex 183.491745 -254.167160 10.000000
vertex 184.399490 -257.696594 10.000000
endloop
endfacet
facet normal 0.000000 0.000000 1.000000
outer loop
vertex 184.399490 -257.696594 10.000000
vertex 183.491745 -254.167160 10.000000
vertex 182.786285 -258.007660 10.000000
endloop
endfacet
facet normal 0.000000 0.000000 1.000000
outer loop
vertex 184.399490 -257.696594 10.000000
vertex 182.786285 -258.007660 10.000000
vertex 183.317352 -261.511597 10.000000
endloop
endfacet
facet normal 0.000000 0.000000 1.000000
outer loop
vertex 183.317352 -261.511597 10.000000
vertex 182.786285 -258.007660 10.000000
vertex 181.641937 -261.740936 10.000000
endloop
endfacet
facet normal 0.000000 0.000000 1.000000
outer loop
vertex 183.317352 -261.511597 10.000000
vertex 181.641937 -261.740936 10.000000
vertex 181.813553 -265.180939 10.000000
endloop
endfacet
facet normal 0.000000 0.000000 1.000000
outer loop
vertex 181.813553 -265.180939 10.000000
vertex 181.641937 -261.740936 10.000000
vertex 180.074066 -265.317078 10.000000
endloop
endfacet
facet normal 0.000000 0.000000 1.000000
outer loop
vertex 181.813553 -265.180939 10.000000
vertex 180.074066 -265.317078 10.000000
vertex 179.907120 -268.658142 10.000000
endloop
endfacet
facet normal 0.000000 0.000000 1.000000
outer loop
vertex 179.907120 -268.658142 10.000000
vertex 180.074066 -265.317078 10.000000
vertex 178.103622 -268.688202 10.000000
endloop
endfacet
facet normal 0.000000 0.000000 1.000000
outer loop
vertex 179.907120 -268.658142 10.000000
vertex 178.103622 -268.688202 10.000000
vertex 177.622208 -271.899231 10.000000
endloop
endfacet
facet normal 0.000000 0.000000 1.000000
outer loop
vertex 177.622208 -271.899231 10.000000
vertex 178.103622 -268.688202 10.000000
vertex 175.757004 -271.809143 10.000000
endloop
endfacet
facet normal 0.000000 0.000000 1.000000
outer loop
vertex 177.622208 -271.899231 10.000000
vertex 175.757004 -271.809143 10.000000
vertex 174.987717 -274.863159 10.000000
endloop
endfacet
facet normal 0.000000 0.000000 1.000000
outer loop
vertex 174.987717 -274.863159 10.000000
vertex 175.757004 -271.809143 10.000000
vertex 173.065613 -274.638184 10.000000
endloop
endfacet
facet normal 0.000000 0.000000 1.000000
outer loop
vertex 174.987717 -274.863159 10.000000
vertex 173.065613 -274.638184 10.000000
vertex 172.036987 -277.512421 10.000000
endloop
endfacet
facet normal 0.000000 0.000000 1.000000
outer loop
vertex 172.036987 -277.512421 10.000000
vertex 173.065613 -274.638184 10.000000
vertex 170.065460 -277.137421 10.000000
endloop
endfacet
facet normal 0.000000 0.000000 1.000000
outer loop
vertex 172.036987 -277.512421 10.000000
vertex 170.065460 -277.137421 10.000000
vertex 168.807373 -279.813507 10.000000
endloop
endfacet
facet normal 0.000000 0.000000 1.000000
outer loop
vertex 168.807373 -279.813507 10.000000
vertex 170.065460 -277.137421 10.000000
vertex 166.796738 -279.273407 10.000000
endloop
endfacet
facet normal 0.000000 0.000000 1.000000
outer loop
vertex 168.807373 -279.813507 10.000000
vertex 166.796738 -279.273407 10.000000
vertex 165.339737 -281.737274 10.000000
endloop
endfacet
facet normal 0.000000 0.000000 1.000000
outer loop
vertex 165.339737 -281.737274 10.000000
vertex 166.796738 -279.273407 10.000000
vertex 163.303177 -281.017548 10.000000
endloop
endfacet
facet normal 0.000000 0.000000 1.000000
outer loop
vertex 165.339737 -281.737274 10.000000
vertex 163.303177 -281.017548 10.000000
vertex 161.677963 -283.259399 10.000000
endloop
endfacet
facet normal 0.000000 0.000000 1.000000
outer loop
vertex 161.677963 -283.259399 10.000000
vertex 163.303177 -281.017548 10.000000
vertex 159.631546 -282.346497 10.000000
endloop
endfacet
facet normal 0.000000 0.000000 1.000000
outer loop
vertex 161.677963 -283.259399 10.000000
vertex 159.631546 -282.346497 10.000000
vertex 157.868393 -284.360596 10.000000
endloop
endfacet
facet normal 0.000000 0.000000 1.000000
outer loop
vertex 157.868393 -284.360596 10.000000
vertex 159.631546 -282.346497 10.000000
vertex 155.830978 -283.242462 10.000000
endloop
endfacet
facet normal 0.000000 0.000000 1.000000
outer loop
vertex 157.868393 -284.360596 10.000000
vertex 155.830978 -283.242462 10.000000
vertex 153.959259 -285.026947 10.000000
endloop
endfacet
facet normal 0.000000 0.000000 1.000000
outer loop
vertex 153.959259 -285.026947 10.000000
vertex 155.830978 -283.242462 10.000000
vertex 151.952377 -283.693481 10.000000
endloop
endfacet
facet normal 0.000000 0.000000 1.000000
outer loop
vertex 153.959259 -285.026947 10.000000
vertex 151.952377 -283.693481 10.000000
vertex 150.000000 -285.250000 10.000000
endloop
endfacet
facet normal 0.000000 0.000000 1.000000
outer loop
vertex 150.000000 -285.250000 10.000000
vertex 151.952377 -283.693481 10.000000
vertex 148.047623 -283.693481 10.000000
endloop
endfacet
facet normal 0.000000 0.000000 1.000000
outer loop
vertex 150.000000 -285.250000 10.000000
vertex 148.047623 -283.693481 10.000000
vertex 146.040741 -285.026947 10.000000
endloop
endfacet
facet normal 0.000000 0.000000 1.000000
outer loop
vertex 146.040741 -285.026947 10.000000
vertex 148.047623 -283.693481 10.000000
vertex 144.169022 -283.242462 10.000000
endloop
endfacet
facet normal 0.000000 0.000000 1.000000
outer loop
vertex 146.040741 -285.026947 10.000000
vertex 144.169022 -283.242462 10.000000
vertex 142.131607 -284.360596 10.000000
endloop
endfacet
facet normal 0.000000 0.000000 1.000000
outer loop
vertex 142.131607 -284.360596 10.000000
vertex 144.169022 -283.242462 10.000000
vertex 140.368454 -282.346497 10.000000
endloop
endfacet
facet normal 0.000000 0.000000 1.000000
outer loop
vertex 142.131607 -284.360596 10.000000
vertex 140.368454 -282.346497 10.000000
vertex 138.322037 -283.259399 10.000000
endloop
endfacet
facet normal 0.000000 0.000000 1.000000
outer loop
vertex 138.322037 -283.259399 10.000000
vertex 140.368454 -282.346497 10.000000
vertex 136.696823 -281.017548 10.000000
endloop
endfacet
facet normal 0.000000 0.000000 1.000000
outer loop
vertex 138.322037 -283.259399 10.000000
vertex 136.696823 -281.017548 10.000000
vertex 134.660263 -281.737274 10.000000
endloop
endfacet
facet normal 0.000000 0.000000 1.000000
outer loop
vertex 134.660263 -281.737274 10.000000
vertex 136.696823 -281.017548 10.000000
vertex 133.203262 -279.273407 10.000000
endloop
endfacet
facet normal 0.000000 0.000000 1.000000
outer loop
vertex 134.660263 -281.737274 10.000000
vertex 133.203262 -279.273407 10.000000
vertex 131.192627 -279.813507 10.000000
endloop
endfacet
facet normal 0.000000 0.000000 1.000000
outer loop
vertex 131.192627 -279.813507 10.000000
vertex 133.203262 -279.273407 10.000000
vertex 129.934540 -277.137421 10.000000
endloop
endfacet
facet normal 0.000000 0.000000 1.000000
outer loop
vertex 131.192627 -279.813507 10.000000
vertex 129.934540 -277.137421 10.000000
vertex 127.963005 -277.512421 10.000000
endloop
endfacet
facet normal 0.000000 0.000000 1.000000
outer loop
vertex 127.963005 -277.512421 10.000000
vertex 129.934540 -277.137421 10.000000
vertex 126.934395 -274.638184 10.000000
endloop
endfacet
facet normal 0.000000 0.000000 1.000000
outer loop
vertex 127.963005 -277.512421 10.000000
vertex 126.934395 -274.638184 10.000000
vertex 125.012283 -274.863159 10.000000
endloop
endfacet
facet normal 0.000000 0.000000 1.000000
outer loop
vertex 125.012283 -274.863159 10.000000
vertex 126.934395 -274.638184 10.000000
vertex 124.242996 -271.809143 10.000000
endloop
endfacet
facet normal 0.000000 0.000000 1.000000
outer loop
vertex 125.012283 -274.863159 10.000000
vertex 124.242996 -271.809143 10.000000
vertex 122.377792 -271.899231 10.000000
endloop
endfacet
facet normal 0.000000 0.000000 1.000000
outer loop
vertex 122.377792 -271.899231 10.000000
vertex 124.242996 -271.809143 10.000000
vertex 121.896378 -268.688202 10.000000
endloop
endfacet
facet normal 0.000000 0.000000 1.000000
outer loop
vertex 122.377792 -271.899231 10.000000
vertex 121.896378 -268.688202 10.000000
vertex 120.092873 -268.658142 10.000000
endloop
endfacet
facet normal 0.000000 0.000000 1.000000
outer loop
vertex 120.092873 -268.658142 10.000000
vertex 121.896378 -268.688202 10.000000
vertex 119.925934 -265.317078 10.000000
endloop
endfacet
facet normal 0.000000 0.000000 1.000000
outer loop
vertex 120.092873 -268.658142 10.000000
vertex 119.925934 -265.317078 10.000000
vertex 118.186455 -265.180939 10.000000
endloop
endfacet
facet normal 0.000000 0.000000 1.000000
outer loop
vertex 118.186455 -265.180939 10.000000
vertex 119.925934 -265.317078 10.000000
vertex 118.358055 -261.740936 10.000000
endloop
endfacet
facet normal 0.000000 0.000000 1.000000
outer loop
vertex 118.186455 -265.180939 10.000000
vertex 118.358055 -261.740936 10.000000
vertex 116.682655 -261.511597 10.000000
endloop
endfacet
facet normal 0.000000 0.000000 1.000000
outer loop
vertex 116.682655 -261.511597 10.000000
vertex 118.358055 -261.740936 10.000000
vertex 117.213722 -258.007660 10.000000
endloop
endfacet
facet normal 0.000000 0.000000 1.000000
outer loop
vertex 116.682655 -261.511597 10.000000
vertex 117.213722 -258.007660 10.000000
vertex 115.600510 -257.696594 10.000000
endloop
endfacet
facet normal 0.000000 0.000000 1.000000
outer loop
vertex 115.600510 -257.696594 10.000000
vertex 117.213722 -258.007660 10.000000
vertex 116.508255 -254.167160 10.000000
endloop
endfacet
facet normal 0.000000 0.000000 1.000000
outer loop
vertex 115.600510 -257.696594 10.000000
vertex 116.508255 -254.167160 10.000000
vertex 114.953705 -253.784149 10.000000
endloop
endfacet
facet normal 0.000000 0.000000 1.000000
outer loop
vertex 114.953705 -253.784149 10.000000
vertex 116.508255 -254.167160 10.000000
vertex 116.251091 -250.270905 10.000000
endloop
endfacet
facet normal 0.000000 0.000000 1.000000
outer loop
vertex 114.953705 -253.784149 10.000000
vertex 116.251091 -250.270905 10.000000
vertex 114.750443 -249.823837 10.000000
endloop
endfacet
facet normal 0.000000 0.000000 1.000000
outer loop
vertex 114.750443 -249.823837 10.000000
vertex 116.251091 -250.270905 10.000000
vertex 116.445671 -246.371002 10.000000
endloop
endfacet
facet normal 0.000000 0.000000 1.000000
outer loop
vertex 114.750443 -249.823837 10.000000
vertex 116.445671 -246.371002 10.000000
vertex 114.993279 -245.865753 10.000000
endloop
endfacet
facet normal 0.000000 0.000000 1.000000
outer loop
vertex 114.993279 -245.865753 10.000000
vertex 116.445671 -246.371002 10.000000
vertex 117.089401 -242.519699 10.000000
endloop
endfacet
facet normal 0.000000 0.000000 1.000000
outer loop
vertex 114.993279 -245.865753 10.000000
vertex 117.089401 -242.519699 10.000000
vertex 115.679153 -241.959991 10.000000
endloop
endfacet
facet normal 0.000000 0.000000 1.000000
outer loop
vertex 115.679153 -241.959991 10.000000
vertex 117.089401 -242.519699 10.000000
vertex 118.173660 -238.768509 10.000000
endloop
endfacet
facet normal 0.000000 0.000000 1.000000
outer loop
vertex 115.679153 -241.959991 10.000000
vertex 118.173660 -238.768509 10.000000
vertex 116.799377 -238.155975 10.000000
endloop
endfacet
facet normal 0.000000 0.000000 1.000000
outer loop
vertex 116.799377 -238.155975 10.000000
vertex 118.173660 -238.768509 10.000000
vertex 119.683929 -235.167664 10.000000
endloop
endfacet
facet normal 0.000000 0.000000 1.000000
outer loop
vertex 116.799377 -238.155975 10.000000
vertex 119.683929 -235.167664 10.000000
vertex 118.339775 -234.501846 10.000000
endloop
endfacet
facet normal 0.000000 0.000000 1.000000
outer loop
vertex 118.339775 -234.501846 10.000000
vertex 119.683929 -235.167664 10.000000
vertex 121.599998 -231.765350 10.000000
endloop
endfacet
facet normal 0.000000 0.000000 1.000000
outer loop
vertex 118.339775 -234.501846 10.000000
vertex 121.599998 -231.765350 10.000000
vertex 120.280853 -231.043869 10.000000
endloop
endfacet
facet normal 0.000000 0.000000 1.000000
outer loop
vertex 120.280853 -231.043869 10.000000
vertex 121.599998 -231.765350 10.000000
vertex 122.598053 -227.825790 10.000000
endloop
endfacet
facet normal 0.000000 0.000000 1.000000
outer loop
vertex 122.598053 -227.825790 10.000000
vertex 121.599998 -231.765350 10.000000
vertex 123.896217 -228.607132 10.000000
endloop
endfacet
facet normal 0.000000 0.000000 1.000000
outer loop
vertex 122.598053 -227.825790 10.000000
vertex 123.896217 -228.607132 10.000000
vertex 125.262032 -224.888336 10.000000
endloop
endfacet
facet normal 0.000000 0.000000 1.000000
outer loop
vertex 125.262032 -224.888336 10.000000
vertex 123.896217 -228.607132 10.000000
vertex 126.541855 -225.735260 10.000000
endloop
endfacet
facet normal 0.000000 0.000000 1.000000
outer loop
vertex 125.262032 -224.888336 10.000000
vertex 126.541855 -225.735260 10.000000
vertex 128.239090 -222.268692 10.000000
endloop
endfacet
facet normal 0.000000 0.000000 1.000000
outer loop
vertex 128.239090 -222.268692 10.000000
vertex 126.541855 -225.735260 10.000000
vertex 129.501495 -223.188187 10.000000
endloop
endfacet
facet normal 0.000000 0.000000 1.000000
outer loop
vertex 128.239090 -222.268692 10.000000
vertex 129.501495 -223.188187 10.000000
vertex 131.491547 -220.000000 10.000000
endloop
endfacet
facet normal 0.000000 0.000000 1.000000
outer loop
vertex 131.491547 -220.000000 10.000000
vertex 129.501495 -223.188187 10.000000
vertex 132.735504 -221.000000 10.000000
endloop
endfacet
facet normal 0.000000 0.000000 1.000000
outer loop
vertex 131.491547 -220.000000 10.000000
vertex 132.735504 -221.000000 10.000000
vertex 142.164993 -220.000000 10.000000
endloop
endfacet
facet normal 0.000000 0.000000 1.000000
outer loop
vertex 142.164993 -220.000000 10.000000
vertex 132.735504 -221.000000 10.000000
vertex 141.164993 -221.000000 10.000000
endloop
endfacet
facet normal 0.000000 0.000000 1.000000
outer loop
vertex 142.164993 -220.000000 10.000000
vertex 141.164993 -221.000000 10.000000
vertex 142.164993 -221.771591 10.000000
endloop
endfacet
facet normal 0.000000 0.000000 1.000000
outer loop
vertex 142.164993 -221.771591 10.000000
vertex 141.164993 -221.000000 10.000000
vertex 141.164993 -221.333313 10.000000
endloop
endfacet
facet normal 0.000000 0.000000 1.000000
outer loop
vertex 142.164993 -221.771591 10.000000
vertex 141.164993 -221.333313 10.000000
vertex 139.399994 -224.320007 10.000000
endloop
endfacet
facet normal 0.000000 0.000000 1.000000
outer loop
vertex 139.399994 -224.320007 10.000000
vertex 141.164993 -221.333313 10.000000
vertex 137.986954 -224.262405 10.000000
endloop
endfacet
facet normal 0.000000 0.000000 1.000000
outer loop
vertex 139.399994 -224.320007 10.000000
vertex 137.986954 -224.262405 10.000000
vertex 141.726715 -228.320007 10.000000
endloop
endfacet
facet normal 0.000000 0.000000 1.000000
outer loop
vertex 139.399994 -224.320007 10.000000
vertex 141.726715 -228.320007 10.000000
vertex 142.164993 -227.320007 10.000000
endloop
endfacet
facet normal 0.000000 0.000000 1.000000
outer loop
vertex 142.164993 -227.320007 10.000000
vertex 141.726715 -228.320007 10.000000
vertex 158.273285 -228.320007 10.000000
endloop
endfacet
facet normal 0.000000 0.000000 -1.000000
outer loop
vertex 157.835007 -221.771591 0.000000
vertex 157.835007 -220.000000 0.000000
vertex 160.600006 -224.320007 0.000000
endloop
endfacet
facet normal 0.000000 0.000000 -1.000000
outer loop
vertex 160.600006 -224.320007 0.000000
vertex 157.835007 -220.000000 0.000000
vertex 168.508453 -220.000000 0.000000
endloop
endfacet
facet normal 0.000000 0.000000 -1.000000
outer loop
vertex 160.600006 -224.320007 0.000000
vertex 168.508453 -220.000000 0.000000
vertex 171.760910 -222.268692 0.000000
endloop
endfacet
facet normal 0.000000 0.000000 -1.000000
outer loop
vertex 171.760910 -222.268692 0.000000
vertex 174.737961 -224.888336 0.000000
vertex 160.600006 -224.320007 0.000000
endloop
endfacet
facet normal 0.000000 0.000000 -1.000000
outer loop
vertex 160.600006 -224.320007 0.000000
vertex 174.737961 -224.888336 0.000000
vertex 157.835007 -227.320007 0.000000
endloop
endfacet
facet normal 0.000000 0.000000 -1.000000
outer loop
vertex 157.835007 -227.320007 0.000000
vertex 174.737961 -224.888336 0.000000
vertex 177.401947 -227.825790 0.000000
endloop
endfacet
facet normal 0.000000 0.000000 -1.000000
outer loop
vertex 157.835007 -227.320007 0.000000
vertex 177.401947 -227.825790 0.000000
vertex 179.719147 -231.043869 0.000000
endloop
endfacet
facet normal 0.000000 0.000000 -1.000000
outer loop
vertex 179.719147 -231.043869 0.000000
vertex 181.660217 -234.501846 0.000000
vertex 157.835007 -227.320007 0.000000
endloop
endfacet
facet normal 0.000000 0.000000 -1.000000
outer loop
vertex 157.835007 -227.320007 0.000000
vertex 181.660217 -234.501846 0.000000
vertex 183.200623 -238.155975 0.000000
endloop
endfacet
facet normal 0.000000 0.000000 -1.000000
outer loop
vertex 157.835007 -227.320007 0.000000
vertex 183.200623 -238.155975 0.000000
vertex 184.320847 -241.959991 0.000000
endloop
endfacet
facet normal 0.000000 0.000000 -1.000000
outer loop
vertex 184.320847 -241.959991 0.000000
vertex 185.006714 -245.865753 0.000000
vertex 157.835007 -227.320007 0.000000
endloop
endfacet
facet normal 0.000000 0.000000 -1.000000
outer loop
vertex 157.835007 -227.320007 0.000000
vertex 185.006714 -245.865753 0.000000
vertex 185.249557 -249.823837 0.000000
endloop
endfacet
facet normal 0.000000 0.000000 -1.000000
outer loop
vertex 157.835007 -227.320007 0.000000
vertex 185.249557 -249.823837 0.000000
vertex 185.046295 -253.784149 0.000000
endloop
endfacet
facet normal 0.000000 0.000000 -1.000000
outer loop
vertex 185.046295 -253.784149 0.000000
vertex 184.399490 -257.696594 0.000000
vertex 157.835007 -227.320007 0.000000
endloop
endfacet
facet normal 0.000000 0.000000 -1.000000
outer loop
vertex 157.835007 -227.320007 0.000000
vertex 184.399490 -257.696594 0.000000
vertex 183.317352 -261.511597 0.000000
endloop
endfacet
facet normal 0.000000 0.000000 -1.000000
outer loop
vertex 157.835007 -227.320007 0.000000
vertex 183.317352 -261.511597 0.000000
vertex 181.813553 -265.180939 0.000000
endloop
endfacet
facet normal 0.000000 0.000000 -1.000000
outer loop
vertex 181.813553 -265.180939 0.000000
vertex 179.907120 -268.658142 0.000000
vertex 157.835007 -227.320007 0.000000
endloop
endfacet
facet normal 0.000000 0.000000 -1.000000
outer loop
vertex 157.835007 -227.320007 0.000000
vertex 179.907120 -268.658142 0.000000
vertex 177.622208 -271.899231 0.000000
endloop
endfacet
facet normal 0.000000 0.000000 -1.000000
outer loop
vertex 157.835007 -227.320007 0.000000
vertex 177.622208 -271.899231 0.000000
vertex 174.987717 -274.863159 0.000000
endloop
endfacet
facet normal 0.000000 0.000000 -1.000000
outer loop
vertex 174.987717 -274.863159 0.000000
vertex 172.036987 -277.512421 0.000000
vertex 157.835007 -227.320007 0.000000
endloop
endfacet
facet normal 0.000000 0.000000 -1.000000
outer loop
vertex 157.835007 -227.320007 0.000000
vertex 172.036987 -277.512421 0.000000
vertex 168.807373 -279.813507 0.000000
endloop
endfacet
facet normal 0.000000 0.000000 -1.000000
outer loop
vertex 157.835007 -227.320007 0.000000
vertex 168.807373 -279.813507 0.000000
vertex 165.339737 -281.737274 0.000000
endloop
endfacet
facet normal 0.000000 0.000000 -1.000000
outer loop
vertex 165.339737 -281.737274 0.000000
vertex 161.677963 -283.259399 0.000000
vertex 157.835007 -227.320007 0.000000
endloop
endfacet
facet normal 0.000000 0.000000 -1.000000
outer loop
vertex 157.835007 -227.320007 0.000000
vertex 161.677963 -283.259399 0.000000
vertex 157.868393 -284.360596 0.000000
endloop
endfacet
facet normal 0.000000 0.000000 -1.000000
outer loop
vertex 157.835007 -227.320007 0.000000
vertex 157.868393 -284.360596 0.000000
vertex 153.959259 -285.026947 0.000000
endloop
endfacet
facet normal 0.000000 0.000000 -1.000000
outer loop
vertex 153.959259 -285.026947 0.000000
vertex 150.000000 -285.250000 0.000000
vertex 157.835007 -227.320007 0.000000
endloop
endfacet
facet normal 0.000000 0.000000 -1.000000
outer loop
vertex 157.835007 -227.320007 0.000000
vertex 150.000000 -285.250000 0.000000
vertex 142.164993 -227.320007 0.000000
endloop
endfacet
facet normal 0.000000 0.000000 -1.000000
outer loop
vertex 142.164993 -227.320007 0.000000
vertex 150.000000 -285.250000 0.000000
vertex 146.040741 -285.026947 0.000000
endloop
endfacet
facet normal 0.000000 0.000000 -1.000000
outer loop
vertex 142.164993 -227.320007 0.000000
vertex 146.040741 -285.026947 0.000000
vertex 142.131607 -284.360596 0.000000
endloop
endfacet
facet normal 0.000000 0.000000 -1.000000
outer loop
vertex 142.131607 -284.360596 0.000000
vertex 138.322037 -283.259399 0.000000
vertex 142.164993 -227.320007 0.000000
endloop
endfacet
facet normal 0.000000 0.000000 -1.000000
outer loop
vertex 142.164993 -227.320007 0.000000
vertex 138.322037 -283.259399 0.000000
vertex 134.660263 -281.737274 0.000000
endloop
endfacet
facet normal 0.000000 0.000000 -1.000000
outer loop
vertex 142.164993 -227.320007 0.000000
vertex 134.660263 -281.737274 0.000000
vertex 131.192627 -279.813507 0.000000
endloop
endfacet
facet normal 0.000000 0.000000 -1.000000
outer loop
vertex 131.192627 -279.813507 0.000000
vertex 127.963005 -277.512421 0.000000
vertex 142.164993 -227.320007 0.000000
endloop
endfacet
facet normal 0.000000 0.000000 -1.000000
outer loop
vertex 142.164993 -227.320007 0.000000
vertex 127.963005 -277.512421 0.000000
vertex 125.012283 -274.863159 0.000000
endloop
endfacet
facet normal 0.000000 0.000000 -1.000000
outer loop
vertex 142.164993 -227.320007 0.000000
vertex 125.012283 -274.863159 0.000000
vertex 122.377792 -271.899231 0.000000
endloop
endfacet
facet normal 0.000000 0.000000 -1.000000
outer loop
vertex 122.377792 -271.899231 0.000000
vertex 120.092873 -268.658142 0.000000
vertex 142.164993 -227.320007 0.000000
endloop
endfacet
facet normal 0.000000 0.000000 -1.000000
outer loop
vertex 142.164993 -227.320007 0.000000
vertex 120.092873 -268.658142 0.000000
vertex 118.186455 -265.180939 0.000000
endloop
endfacet
facet normal 0.000000 0.000000 -1.000000
outer loop
vertex 142.164993 -227.320007 0.000000
vertex 118.186455 -265.180939 0.000000
vertex 116.682655 -261.511597 0.000000
endloop
endfacet
facet normal 0.000000 0.000000 -1.000000
outer loop
vertex 116.682655 -261.511597 0.000000
vertex 115.600510 -257.696594 0.000000
vertex 142.164993 -227.320007 0.000000
endloop
endfacet
facet normal 0.000000 0.000000 -1.000000
outer loop
vertex 142.164993 -227.320007 0.000000
vertex 115.600510 -257.696594 0.000000
vertex 114.953705 -253.784149 0.000000
endloop
endfacet
facet normal 0.000000 0.000000 -1.000000
outer loop
vertex 142.164993 -227.320007 0.000000
vertex 114.953705 -253.784149 0.000000
vertex 114.750443 -249.823837 0.000000
endloop
endfacet
facet normal 0.000000 0.000000 -1.000000
outer loop
vertex 114.750443 -249.823837 0.000000
vertex 114.993279 -245.865753 0.000000
vertex 142.164993 -227.320007 0.000000
endloop
endfacet
facet normal 0.000000 0.000000 -1.000000
outer loop
vertex 142.164993 -227.320007 0.000000
vertex 114.993279 -245.865753 0.000000
vertex 115.679153 -241.959991 0.000000
endloop
endfacet
facet normal 0.000000 0.000000 -1.000000
outer loop
vertex 142.164993 -227.320007 0.000000
vertex 115.679153 -241.959991 0.000000
vertex 116.799377 -238.155975 0.000000
endloop
endfacet
facet normal 0.000000 0.000000 -1.000000
outer loop
vertex 116.799377 -238.155975 0.000000
vertex 118.339775 -234.501846 0.000000
vertex 142.164993 -227.320007 0.000000
endloop
endfacet
facet normal 0.000000 0.000000 -1.000000
outer loop
vertex 142.164993 -227.320007 0.000000
vertex 118.339775 -234.501846 0.000000
vertex 120.280853 -231.043869 0.000000
endloop
endfacet
facet normal 0.000000 0.000000 -1.000000
outer loop
vertex 142.164993 -227.320007 0.000000
vertex 120.280853 -231.043869 0.000000
vertex 122.598053 -227.825790 0.000000
endloop
endfacet
facet normal 0.000000 0.000000 -1.000000
outer loop
vertex 122.598053 -227.825790 0.000000
vertex 125.262032 -224.888336 0.000000
vertex 142.164993 -227.320007 0.000000
endloop
endfacet
facet normal 0.000000 0.000000 -1.000000
outer loop
vertex 142.164993 -227.320007 0.000000
vertex 125.262032 -224.888336 0.000000
vertex 139.399994 -224.320007 0.000000
endloop
endfacet
facet normal 0.000000 0.000000 -1.000000
outer loop
vertex 139.399994 -224.320007 0.000000
vertex 125.262032 -224.888336 0.000000
vertex 128.239090 -222.268692 0.000000
endloop
endfacet
facet normal 0.000000 0.000000 -1.000000
outer loop
vertex 139.399994 -224.320007 0.000000
vertex 128.239090 -222.268692 0.000000
vertex 131.491547 -220.000000 0.000000
endloop
endfacet
facet normal 0.000000 0.000000 -1.000000
outer loop
vertex 131.491547 -220.000000 0.000000
vertex 142.164993 -220.000000 0.000000
vertex 139.399994 -224.320007 0.000000
endloop
endfacet
facet normal 0.000000 0.000000 -1.000000
outer loop
vertex 139.399994 -224.320007 0.000000
vertex 142.164993 -220.000000 0.000000
vertex 142.164993 -221.771591 0.000000
endloop
endfacet
endsolid PinaTinnyStlAndPringle v4.008
