solid PinaTinnyStlAndPringle v5.008
facet normal 0.000000 1.000000 0.000000
outer loop
vertex 234.600021 -42.349453 -117.623322
vertex 229.000015 -42.349453 -117.623322
vertex 234.600021 -42.349453 -67.623322
endloop
endfacet
facet normal 0.000000 1.000000 0.000000
outer loop
vertex 234.600021 -42.349453 -67.623322
vertex 229.000015 -42.349453 -117.623322
vertex 229.000015 -42.349453 -67.623322
endloop
endfacet
facet normal 1.000000 0.000000 0.000000
outer loop
vertex 234.600021 -45.945732 -117.623322
vertex 234.600021 -42.349453 -117.623322
vertex 234.600021 -45.945732 -67.623322
endloop
endfacet
facet normal 1.000000 0.000000 0.000000
outer loop
vertex 234.600021 -45.945732 -67.623322
vertex 234.600021 -42.349453 -117.623322
vertex 234.600021 -42.349453 -67.623322
endloop
endfacet
facet normal 0.677717 -0.735322 0.000000
outer loop
vertex 231.669800 -48.646412 -117.623322
vertex 234.600021 -45.945732 -117.623322
vertex 231.669800 -48.646412 -67.623322
endloop
endfacet
facet normal 0.677722 -0.735318 0.000000
outer loop
vertex 231.669800 -48.646412 -67.623322
vertex 234.600021 -45.945732 -117.623322
vertex 234.600021 -45.945732 -67.623322
endloop
endfacet
facet normal 0.735318 0.677722 0.000000
outer loop
vertex 234.824707 -52.069454 -117.623322
vertex 231.669800 -48.646412 -117.623322
vertex 234.824707 -52.069454 -67.623322
endloop
endfacet
facet normal 0.735322 0.677718 0.000000
outer loop
vertex 234.824707 -52.069454 -67.623322
vertex 231.669800 -48.646412 -117.623322
vertex 231.669800 -48.646412 -67.623322
endloop
endfacet
facet normal 0.000000 1.000000 0.000000
outer loop
vertex 250.845337 -52.069454 -117.623322
vertex 234.824707 -52.069454 -117.623322
vertex 250.845337 -52.069454 -67.623322
endloop
endfacet
facet normal 0.000000 1.000000 0.000000
outer loop
vertex 250.845337 -52.069454 -67.623322
vertex 234.824707 -52.069454 -117.623322
vertex 234.824707 -52.069454 -67.623322
endloop
endfacet
facet normal -0.735322 0.677718 0.000000
outer loop
vertex 254.000229 -48.646412 -117.623322
vertex 250.845337 -52.069454 -117.623322
vertex 254.000229 -48.646412 -67.623322
endloop
endfacet
facet normal -0.735318 0.677722 0.000000
outer loop
vertex 254.000229 -48.646412 -67.623322
vertex 250.845337 -52.069454 -117.623322
vertex 250.845337 -52.069454 -67.623322
endloop
endfacet
facet normal -0.677722 -0.735318 0.000000
outer loop
vertex 251.070023 -45.945732 -117.623322
vertex 254.000229 -48.646412 -117.623322
vertex 251.070023 -45.945732 -67.623322
endloop
endfacet
facet normal -0.677717 -0.735322 0.000000
outer loop
vertex 251.070023 -45.945732 -67.623322
vertex 254.000229 -48.646412 -117.623322
vertex 254.000229 -48.646412 -67.623322
endloop
endfacet
facet normal -1.000000 0.000000 0.000000
outer loop
vertex 251.070023 -42.349453 -117.623322
vertex 251.070023 -45.945732 -117.623322
vertex 251.070023 -42.349453 -67.623322
endloop
endfacet
facet normal -1.000000 0.000000 0.000000
outer loop
vertex 251.070023 -42.349453 -67.623322
vertex 251.070023 -45.945732 -117.623322
vertex 251.070023 -45.945732 -67.623322
endloop
endfacet
facet normal 0.000000 1.000000 0.000000
outer loop
vertex 256.670044 -42.349453 -117.623322
vertex 251.070023 -42.349453 -117.623322
vertex 256.670044 -42.349453 -67.623322
endloop
endfacet
facet normal 0.000000 1.000000 0.000000
outer loop
vertex 256.670044 -42.349453 -67.623322
vertex 251.070023 -42.349453 -117.623322
vertex 251.070023 -42.349453 -67.623322
endloop
endfacet
facet normal 1.000000 0.000000 0.000000
outer loop
vertex 256.670044 -54.669453 -117.623322
vertex 256.670044 -42.349453 -117.623322
vertex 256.670044 -54.669453 -67.623322
endloop
endfacet
facet normal 1.000000 0.000000 0.000000
outer loop
vertex 256.670044 -54.669453 -67.623322
vertex 256.670044 -42.349453 -117.623322
vertex 256.670044 -42.349453 -67.623322
endloop
endfacet
facet normal 0.000000 -1.000000 0.000000
outer loop
vertex 229.000015 -54.669453 -117.623322
vertex 256.670044 -54.669453 -117.623322
vertex 229.000015 -54.669453 -67.623322
endloop
endfacet
facet normal 0.000000 -1.000000 0.000000
outer loop
vertex 229.000015 -54.669453 -67.623322
vertex 256.670044 -54.669453 -117.623322
vertex 256.670044 -54.669453 -67.623322
endloop
endfacet
facet normal -1.000000 0.000000 0.000000
outer loop
vertex 229.000015 -42.349453 -117.623322
vertex 229.000015 -54.669453 -117.623322
vertex 229.000015 -42.349453 -67.623322
endloop
endfacet
facet normal -1.000000 0.000000 0.000000
outer loop
vertex 229.000015 -42.349453 -67.623322
vertex 229.000015 -54.669453 -117.623322
vertex 229.000015 -54.669453 -67.623322
endloop
endfacet
facet normal -0.000004 0.000000 -1.000000
outer loop
vertex 229.000015 -42.349453 -117.623322
vertex 231.669800 -48.646412 -117.623322
vertex 229.000015 -54.669453 -117.623322
endloop
endfacet
facet normal 0.000000 0.000000 -1.000000
outer loop
vertex 229.000015 -54.669453 -117.623322
vertex 231.669800 -48.646412 -117.623322
vertex 234.824707 -52.069454 -117.623322
endloop
endfacet
facet normal 0.000000 0.000000 -1.000000
outer loop
vertex 229.000015 -54.669453 -117.623322
vertex 234.824707 -52.069454 -117.623322
vertex 256.670044 -54.669453 -117.623322
endloop
endfacet
facet normal 0.000000 0.000000 -1.000000
outer loop
vertex 256.670044 -54.669453 -117.623322
vertex 234.824707 -52.069454 -117.623322
vertex 250.845337 -52.069454 -117.623322
endloop
endfacet
facet normal 0.000000 0.000000 -1.000000
outer loop
vertex 256.670044 -54.669453 -117.623322
vertex 250.845337 -52.069454 -117.623322
vertex 254.000229 -48.646412 -117.623322
endloop
endfacet
facet normal 0.000000 0.000000 -1.000000
outer loop
vertex 234.600021 -42.349453 -117.623322
vertex 234.600021 -45.945732 -117.623322
vertex 229.000015 -42.349453 -117.623322
endloop
endfacet
facet normal 0.000002 0.000000 -1.000000
outer loop
vertex 229.000015 -42.349453 -117.623322
vertex 234.600021 -45.945732 -117.623322
vertex 231.669800 -48.646412 -117.623322
endloop
endfacet
facet normal 0.000004 0.000000 -1.000000
outer loop
vertex 256.670044 -54.669453 -117.623322
vertex 254.000229 -48.646412 -117.623322
vertex 256.670044 -42.349453 -117.623322
endloop
endfacet
facet normal -0.000002 0.000000 -1.000000
outer loop
vertex 256.670044 -42.349453 -117.623322
vertex 254.000229 -48.646412 -117.623322
vertex 251.070023 -45.945732 -117.623322
endloop
endfacet
facet normal 0.000000 0.000000 -1.000000
outer loop
vertex 256.670044 -42.349453 -117.623322
vertex 251.070023 -45.945732 -117.623322
vertex 251.070023 -42.349453 -117.623322
endloop
endfacet
facet normal 0.000000 0.000000 1.000000
outer loop
vertex 229.000015 -54.669453 -67.623322
vertex 231.669800 -48.646412 -67.623322
vertex 229.000015 -42.349453 -67.623322
endloop
endfacet
facet normal -0.000001 0.000000 1.000000
outer loop
vertex 229.000015 -42.349453 -67.623322
vertex 231.669800 -48.646412 -67.623322
vertex 234.600021 -45.945732 -67.623322
endloop
endfacet
facet normal 0.000000 0.000000 1.000000
outer loop
vertex 229.000015 -42.349453 -67.623322
vertex 234.600021 -45.945732 -67.623322
vertex 234.600021 -42.349453 -67.623322
endloop
endfacet
facet normal -0.000001 0.000000 1.000000
outer loop
vertex 231.669800 -48.646412 -67.623322
vertex 229.000015 -54.669453 -67.623322
vertex 234.824707 -52.069454 -67.623322
endloop
endfacet
facet normal 0.000000 0.000000 1.000000
outer loop
vertex 234.824707 -52.069454 -67.623322
vertex 229.000015 -54.669453 -67.623322
vertex 256.670044 -54.669453 -67.623322
endloop
endfacet
facet normal 0.000000 0.000000 1.000000
outer loop
vertex 234.824707 -52.069454 -67.623322
vertex 256.670044 -54.669453 -67.623322
vertex 250.845337 -52.069454 -67.623322
endloop
endfacet
facet normal 0.000000 0.000000 1.000000
outer loop
vertex 250.845337 -52.069454 -67.623322
vertex 256.670044 -54.669453 -67.623322
vertex 254.000229 -48.646412 -67.623322
endloop
endfacet
facet normal 0.000000 0.000000 1.000000
outer loop
vertex 254.000229 -48.646412 -67.623322
vertex 256.670044 -54.669453 -67.623322
vertex 256.670044 -42.349453 -67.623322
endloop
endfacet
facet normal 0.000001 0.000000 1.000000
outer loop
vertex 254.000229 -48.646412 -67.623322
vertex 256.670044 -42.349453 -67.623322
vertex 251.070023 -45.945732 -67.623322
endloop
endfacet
facet normal 0.000000 0.000000 1.000000
outer loop
vertex 251.070023 -45.945732 -67.623322
vertex 256.670044 -42.349453 -67.623322
vertex 251.070023 -42.349453 -67.623322
endloop
endfacet
endsolid PinaTinnyStlAndPringle v5.008
